<mxfile host="Electron" modified="2023-12-04T19:49:12.806Z" agent="Mozilla/5.0 (Windows NT 10.0; Win64; x64) AppleWebKit/537.36 (KHTML, like Gecko) draw.io/22.1.2 Chrome/114.0.5735.289 Electron/25.9.4 Safari/537.36" etag="fA21ab14ydNoBoOLaAhN" version="22.1.2" type="device" pages="6">
  <diagram id="C5RBs43oDa-KdzZeNtuy" name="业务流图">
    <mxGraphModel dx="723" dy="511" grid="1" gridSize="10" guides="1" tooltips="1" connect="1" arrows="1" fold="1" page="1" pageScale="1" pageWidth="1169" pageHeight="827" math="0" shadow="0">
      <root>
        <mxCell id="WIyWlLk6GJQsqaUBKTNV-0" />
        <mxCell id="WIyWlLk6GJQsqaUBKTNV-1" parent="WIyWlLk6GJQsqaUBKTNV-0" />
        <mxCell id="Deetn7VXw1Hc985w1RGA-0" value="&lt;font style=&quot;font-size: 18px;&quot;&gt;游客&lt;/font&gt;" style="ellipse;whiteSpace=wrap;html=1;fontSize=18;" parent="WIyWlLk6GJQsqaUBKTNV-1" vertex="1">
          <mxGeometry x="239" y="180" width="80" height="60" as="geometry" />
        </mxCell>
        <mxCell id="Deetn7VXw1Hc985w1RGA-21" style="rounded=0;orthogonalLoop=1;jettySize=auto;html=1;exitX=1;exitY=0.5;exitDx=0;exitDy=0;entryX=0;entryY=0.5;entryDx=0;entryDy=0;fontSize=12;" parent="WIyWlLk6GJQsqaUBKTNV-1" source="Deetn7VXw1Hc985w1RGA-1" target="Deetn7VXw1Hc985w1RGA-18" edge="1">
          <mxGeometry relative="1" as="geometry" />
        </mxCell>
        <mxCell id="Deetn7VXw1Hc985w1RGA-26" value="购买" style="edgeLabel;html=1;align=center;verticalAlign=middle;resizable=0;points=[];fontSize=12;" parent="Deetn7VXw1Hc985w1RGA-21" vertex="1" connectable="0">
          <mxGeometry x="-0.0299" y="-2" relative="1" as="geometry">
            <mxPoint x="-4" y="-2" as="offset" />
          </mxGeometry>
        </mxCell>
        <mxCell id="Deetn7VXw1Hc985w1RGA-1" value="&lt;font style=&quot;font-size: 18px;&quot;&gt;顾客&lt;/font&gt;" style="ellipse;whiteSpace=wrap;html=1;fontSize=18;" parent="WIyWlLk6GJQsqaUBKTNV-1" vertex="1">
          <mxGeometry x="239" y="300" width="80" height="60" as="geometry" />
        </mxCell>
        <mxCell id="Deetn7VXw1Hc985w1RGA-22" style="rounded=0;orthogonalLoop=1;jettySize=auto;html=1;exitX=1;exitY=1;exitDx=0;exitDy=0;entryX=0;entryY=0.5;entryDx=0;entryDy=0;fontSize=12;edgeStyle=orthogonalEdgeStyle;" parent="WIyWlLk6GJQsqaUBKTNV-1" source="Deetn7VXw1Hc985w1RGA-2" target="Deetn7VXw1Hc985w1RGA-19" edge="1">
          <mxGeometry relative="1" as="geometry">
            <Array as="points">
              <mxPoint x="321" y="494" />
            </Array>
          </mxGeometry>
        </mxCell>
        <mxCell id="Deetn7VXw1Hc985w1RGA-27" value="进货" style="edgeLabel;html=1;align=center;verticalAlign=middle;resizable=0;points=[];fontSize=12;" parent="Deetn7VXw1Hc985w1RGA-22" vertex="1" connectable="0">
          <mxGeometry x="-0.1562" y="1" relative="1" as="geometry">
            <mxPoint x="15" y="1" as="offset" />
          </mxGeometry>
        </mxCell>
        <mxCell id="QScap3ZGjUXTnHB0jdiF-0" style="edgeStyle=orthogonalEdgeStyle;rounded=0;orthogonalLoop=1;jettySize=auto;html=1;exitX=1;exitY=0.5;exitDx=0;exitDy=0;entryX=0.5;entryY=1;entryDx=0;entryDy=0;" parent="WIyWlLk6GJQsqaUBKTNV-1" source="Deetn7VXw1Hc985w1RGA-2" target="Deetn7VXw1Hc985w1RGA-34" edge="1">
          <mxGeometry relative="1" as="geometry">
            <Array as="points">
              <mxPoint x="570" y="450" />
              <mxPoint x="570" y="256" />
              <mxPoint x="699" y="256" />
            </Array>
          </mxGeometry>
        </mxCell>
        <mxCell id="QScap3ZGjUXTnHB0jdiF-1" value="&lt;font style=&quot;font-size: 12px;&quot;&gt;录入/修改图书信息&lt;/font&gt;" style="edgeLabel;html=1;align=center;verticalAlign=middle;resizable=0;points=[];" parent="QScap3ZGjUXTnHB0jdiF-0" vertex="1" connectable="0">
          <mxGeometry x="-0.5664" y="-1" relative="1" as="geometry">
            <mxPoint x="-14" as="offset" />
          </mxGeometry>
        </mxCell>
        <mxCell id="QScap3ZGjUXTnHB0jdiF-2" style="edgeStyle=orthogonalEdgeStyle;rounded=0;orthogonalLoop=1;jettySize=auto;html=1;exitX=1;exitY=0;exitDx=0;exitDy=0;entryX=0;entryY=0.75;entryDx=0;entryDy=0;" parent="WIyWlLk6GJQsqaUBKTNV-1" source="Deetn7VXw1Hc985w1RGA-2" target="Deetn7VXw1Hc985w1RGA-4" edge="1">
          <mxGeometry relative="1" as="geometry">
            <Array as="points">
              <mxPoint x="390" y="429" />
              <mxPoint x="390" y="225" />
            </Array>
          </mxGeometry>
        </mxCell>
        <mxCell id="QScap3ZGjUXTnHB0jdiF-3" value="Text" style="edgeLabel;html=1;align=center;verticalAlign=middle;resizable=0;points=[];" parent="QScap3ZGjUXTnHB0jdiF-2" vertex="1" connectable="0">
          <mxGeometry x="-0.8155" relative="1" as="geometry">
            <mxPoint as="offset" />
          </mxGeometry>
        </mxCell>
        <mxCell id="QScap3ZGjUXTnHB0jdiF-4" value="&lt;font style=&quot;font-size: 12px;&quot;&gt;创建用户&lt;/font&gt;" style="edgeLabel;html=1;align=center;verticalAlign=middle;resizable=0;points=[];" parent="QScap3ZGjUXTnHB0jdiF-2" vertex="1" connectable="0">
          <mxGeometry x="-0.8223" y="2" relative="1" as="geometry">
            <mxPoint x="9" y="2" as="offset" />
          </mxGeometry>
        </mxCell>
        <mxCell id="Deetn7VXw1Hc985w1RGA-2" value="&lt;span style=&quot;font-size: 18px;&quot;&gt;销售人员&lt;/span&gt;" style="ellipse;whiteSpace=wrap;html=1;fontSize=18;" parent="WIyWlLk6GJQsqaUBKTNV-1" vertex="1">
          <mxGeometry x="219" y="420" width="120" height="60" as="geometry" />
        </mxCell>
        <mxCell id="Deetn7VXw1Hc985w1RGA-3" value="&lt;font style=&quot;font-size: 18px;&quot;&gt;店长&lt;/font&gt;" style="ellipse;whiteSpace=wrap;html=1;fontSize=18;" parent="WIyWlLk6GJQsqaUBKTNV-1" vertex="1">
          <mxGeometry x="239" y="566" width="80" height="60" as="geometry" />
        </mxCell>
        <mxCell id="Deetn7VXw1Hc985w1RGA-4" value="账号系统" style="rounded=0;whiteSpace=wrap;html=1;fontSize=18;" parent="WIyWlLk6GJQsqaUBKTNV-1" vertex="1">
          <mxGeometry x="410" y="180" width="109" height="60" as="geometry" />
        </mxCell>
        <mxCell id="Deetn7VXw1Hc985w1RGA-6" value="" style="endArrow=classic;html=1;rounded=0;exitX=1;exitY=0.5;exitDx=0;exitDy=0;entryX=0;entryY=0.5;entryDx=0;entryDy=0;fontSize=12;" parent="WIyWlLk6GJQsqaUBKTNV-1" source="Deetn7VXw1Hc985w1RGA-0" target="Deetn7VXw1Hc985w1RGA-4" edge="1">
          <mxGeometry width="50" height="50" relative="1" as="geometry">
            <mxPoint x="589" y="380" as="sourcePoint" />
            <mxPoint x="639" y="330" as="targetPoint" />
          </mxGeometry>
        </mxCell>
        <mxCell id="Deetn7VXw1Hc985w1RGA-10" value="登录/注册" style="edgeLabel;html=1;align=center;verticalAlign=middle;resizable=0;points=[];fontSize=12;" parent="Deetn7VXw1Hc985w1RGA-6" vertex="1" connectable="0">
          <mxGeometry x="-0.1968" y="3" relative="1" as="geometry">
            <mxPoint x="5" y="3" as="offset" />
          </mxGeometry>
        </mxCell>
        <mxCell id="Deetn7VXw1Hc985w1RGA-7" value="" style="endArrow=classic;html=1;rounded=0;entryX=0.5;entryY=1;entryDx=0;entryDy=0;exitX=0.5;exitY=0;exitDx=0;exitDy=0;fontSize=12;" parent="WIyWlLk6GJQsqaUBKTNV-1" source="Deetn7VXw1Hc985w1RGA-1" target="Deetn7VXw1Hc985w1RGA-0" edge="1">
          <mxGeometry width="50" height="50" relative="1" as="geometry">
            <mxPoint x="279" y="290" as="sourcePoint" />
            <mxPoint x="639" y="330" as="targetPoint" />
          </mxGeometry>
        </mxCell>
        <mxCell id="Deetn7VXw1Hc985w1RGA-14" value="登录/注册" style="edgeLabel;html=1;align=center;verticalAlign=middle;resizable=0;points=[];fontSize=12;" parent="Deetn7VXw1Hc985w1RGA-7" vertex="1" connectable="0">
          <mxGeometry x="-0.0667" y="-1" relative="1" as="geometry">
            <mxPoint x="-1" as="offset" />
          </mxGeometry>
        </mxCell>
        <mxCell id="Deetn7VXw1Hc985w1RGA-8" value="" style="endArrow=classic;html=1;rounded=0;exitX=0.5;exitY=0;exitDx=0;exitDy=0;fontSize=12;" parent="WIyWlLk6GJQsqaUBKTNV-1" source="Deetn7VXw1Hc985w1RGA-2" target="Deetn7VXw1Hc985w1RGA-1" edge="1">
          <mxGeometry width="50" height="50" relative="1" as="geometry">
            <mxPoint x="589" y="380" as="sourcePoint" />
            <mxPoint x="639" y="330" as="targetPoint" />
          </mxGeometry>
        </mxCell>
        <mxCell id="Deetn7VXw1Hc985w1RGA-13" value="登录/注册、查询图书、购买" style="edgeLabel;html=1;align=center;verticalAlign=middle;resizable=0;points=[];fontSize=12;" parent="Deetn7VXw1Hc985w1RGA-8" vertex="1" connectable="0">
          <mxGeometry x="-0.1" y="-1" relative="1" as="geometry">
            <mxPoint as="offset" />
          </mxGeometry>
        </mxCell>
        <mxCell id="Deetn7VXw1Hc985w1RGA-9" value="" style="endArrow=classic;html=1;rounded=0;exitX=0.5;exitY=0;exitDx=0;exitDy=0;entryX=0.5;entryY=1;entryDx=0;entryDy=0;fontSize=12;" parent="WIyWlLk6GJQsqaUBKTNV-1" source="Deetn7VXw1Hc985w1RGA-3" target="Deetn7VXw1Hc985w1RGA-2" edge="1">
          <mxGeometry width="50" height="50" relative="1" as="geometry">
            <mxPoint x="589" y="380" as="sourcePoint" />
            <mxPoint x="639" y="330" as="targetPoint" />
          </mxGeometry>
        </mxCell>
        <mxCell id="Deetn7VXw1Hc985w1RGA-11" value="登录/注册、查询图书、购买、进货、&lt;br&gt;录入/修改图书信息、创建用户" style="edgeLabel;html=1;align=center;verticalAlign=middle;resizable=0;points=[];fontSize=12;" parent="Deetn7VXw1Hc985w1RGA-9" vertex="1" connectable="0">
          <mxGeometry x="-0.1667" y="1" relative="1" as="geometry">
            <mxPoint x="2" y="-5" as="offset" />
          </mxGeometry>
        </mxCell>
        <mxCell id="Deetn7VXw1Hc985w1RGA-38" style="edgeStyle=orthogonalEdgeStyle;rounded=0;orthogonalLoop=1;jettySize=auto;html=1;exitX=1;exitY=0.25;exitDx=0;exitDy=0;entryX=0;entryY=0.5;entryDx=0;entryDy=0;fontSize=12;" parent="WIyWlLk6GJQsqaUBKTNV-1" source="Deetn7VXw1Hc985w1RGA-18" target="Deetn7VXw1Hc985w1RGA-34" edge="1">
          <mxGeometry relative="1" as="geometry">
            <Array as="points">
              <mxPoint x="539" y="315" />
              <mxPoint x="539" y="210" />
            </Array>
          </mxGeometry>
        </mxCell>
        <mxCell id="Deetn7VXw1Hc985w1RGA-41" value="更改" style="edgeLabel;html=1;align=center;verticalAlign=middle;resizable=0;points=[];fontSize=12;" parent="Deetn7VXw1Hc985w1RGA-38" vertex="1" connectable="0">
          <mxGeometry x="-0.6569" y="1" relative="1" as="geometry">
            <mxPoint x="1" y="-21" as="offset" />
          </mxGeometry>
        </mxCell>
        <mxCell id="Deetn7VXw1Hc985w1RGA-42" value="" style="edgeStyle=orthogonalEdgeStyle;rounded=0;orthogonalLoop=1;jettySize=auto;html=1;entryX=0;entryY=0.25;entryDx=0;entryDy=0;fontSize=12;" parent="WIyWlLk6GJQsqaUBKTNV-1" source="Deetn7VXw1Hc985w1RGA-18" target="Deetn7VXw1Hc985w1RGA-29" edge="1">
          <mxGeometry relative="1" as="geometry">
            <Array as="points">
              <mxPoint x="549" y="330" />
              <mxPoint x="549" y="285" />
            </Array>
          </mxGeometry>
        </mxCell>
        <mxCell id="Deetn7VXw1Hc985w1RGA-45" value="更改" style="edgeLabel;html=1;align=center;verticalAlign=middle;resizable=0;points=[];fontSize=12;" parent="Deetn7VXw1Hc985w1RGA-42" vertex="1" connectable="0">
          <mxGeometry x="-0.6082" y="1" relative="1" as="geometry">
            <mxPoint x="-15" as="offset" />
          </mxGeometry>
        </mxCell>
        <mxCell id="Deetn7VXw1Hc985w1RGA-44" style="edgeStyle=orthogonalEdgeStyle;rounded=0;orthogonalLoop=1;jettySize=auto;html=1;exitX=1;exitY=0.75;exitDx=0;exitDy=0;entryX=0;entryY=0.25;entryDx=0;entryDy=0;fontSize=12;" parent="WIyWlLk6GJQsqaUBKTNV-1" source="Deetn7VXw1Hc985w1RGA-18" target="Deetn7VXw1Hc985w1RGA-30" edge="1">
          <mxGeometry relative="1" as="geometry">
            <Array as="points">
              <mxPoint x="539" y="345" />
              <mxPoint x="539" y="385" />
            </Array>
          </mxGeometry>
        </mxCell>
        <mxCell id="Deetn7VXw1Hc985w1RGA-46" value="更改" style="edgeLabel;html=1;align=center;verticalAlign=middle;resizable=0;points=[];fontSize=12;" parent="Deetn7VXw1Hc985w1RGA-44" vertex="1" connectable="0">
          <mxGeometry x="0.1496" relative="1" as="geometry">
            <mxPoint x="-32" y="-22" as="offset" />
          </mxGeometry>
        </mxCell>
        <mxCell id="Deetn7VXw1Hc985w1RGA-18" value="购书系统" style="rounded=0;whiteSpace=wrap;html=1;fontSize=18;" parent="WIyWlLk6GJQsqaUBKTNV-1" vertex="1">
          <mxGeometry x="410" y="300" width="109" height="60" as="geometry" />
        </mxCell>
        <mxCell id="Deetn7VXw1Hc985w1RGA-47" style="rounded=0;orthogonalLoop=1;jettySize=auto;html=1;exitX=1;exitY=0.25;exitDx=0;exitDy=0;entryX=0;entryY=0.75;entryDx=0;entryDy=0;fontSize=12;edgeStyle=orthogonalEdgeStyle;" parent="WIyWlLk6GJQsqaUBKTNV-1" source="Deetn7VXw1Hc985w1RGA-19" target="Deetn7VXw1Hc985w1RGA-34" edge="1">
          <mxGeometry relative="1" as="geometry">
            <Array as="points">
              <mxPoint x="560" y="479" />
              <mxPoint x="560" y="225" />
            </Array>
          </mxGeometry>
        </mxCell>
        <mxCell id="Deetn7VXw1Hc985w1RGA-50" value="更改" style="edgeLabel;html=1;align=center;verticalAlign=middle;resizable=0;points=[];fontSize=12;" parent="Deetn7VXw1Hc985w1RGA-47" vertex="1" connectable="0">
          <mxGeometry x="-0.8719" y="1" relative="1" as="geometry">
            <mxPoint x="-4" y="1" as="offset" />
          </mxGeometry>
        </mxCell>
        <mxCell id="Deetn7VXw1Hc985w1RGA-48" style="rounded=0;orthogonalLoop=1;jettySize=auto;html=1;exitX=1;exitY=0.5;exitDx=0;exitDy=0;entryX=0;entryY=0.5;entryDx=0;entryDy=0;fontSize=12;edgeStyle=orthogonalEdgeStyle;" parent="WIyWlLk6GJQsqaUBKTNV-1" source="Deetn7VXw1Hc985w1RGA-19" target="Deetn7VXw1Hc985w1RGA-29" edge="1">
          <mxGeometry relative="1" as="geometry" />
        </mxCell>
        <mxCell id="Deetn7VXw1Hc985w1RGA-51" value="更改" style="edgeLabel;html=1;align=center;verticalAlign=middle;resizable=0;points=[];fontSize=12;" parent="Deetn7VXw1Hc985w1RGA-48" vertex="1" connectable="0">
          <mxGeometry x="-0.7719" relative="1" as="geometry">
            <mxPoint x="-15" as="offset" />
          </mxGeometry>
        </mxCell>
        <mxCell id="Deetn7VXw1Hc985w1RGA-49" style="rounded=0;orthogonalLoop=1;jettySize=auto;html=1;exitX=1;exitY=0.75;exitDx=0;exitDy=0;entryX=0;entryY=0.25;entryDx=0;entryDy=0;fontSize=12;edgeStyle=orthogonalEdgeStyle;" parent="WIyWlLk6GJQsqaUBKTNV-1" source="Deetn7VXw1Hc985w1RGA-19" target="Deetn7VXw1Hc985w1RGA-33" edge="1">
          <mxGeometry relative="1" as="geometry">
            <Array as="points">
              <mxPoint x="610" y="509" />
              <mxPoint x="610" y="485" />
            </Array>
          </mxGeometry>
        </mxCell>
        <mxCell id="Deetn7VXw1Hc985w1RGA-52" value="更改" style="edgeLabel;html=1;align=center;verticalAlign=middle;resizable=0;points=[];fontSize=12;" parent="Deetn7VXw1Hc985w1RGA-49" vertex="1" connectable="0">
          <mxGeometry x="-0.7572" y="1" relative="1" as="geometry">
            <mxPoint x="3" as="offset" />
          </mxGeometry>
        </mxCell>
        <mxCell id="Deetn7VXw1Hc985w1RGA-19" value="进货系统" style="rounded=0;whiteSpace=wrap;html=1;fontSize=18;" parent="WIyWlLk6GJQsqaUBKTNV-1" vertex="1">
          <mxGeometry x="410" y="464" width="109" height="60" as="geometry" />
        </mxCell>
        <mxCell id="Deetn7VXw1Hc985w1RGA-28" value="日志管理系统" style="whiteSpace=wrap;html=1;fontSize=18;" parent="WIyWlLk6GJQsqaUBKTNV-1" vertex="1">
          <mxGeometry x="639" y="560" width="120" height="60" as="geometry" />
        </mxCell>
        <mxCell id="Deetn7VXw1Hc985w1RGA-29" value="盈利管理系统" style="whiteSpace=wrap;html=1;fontSize=18;" parent="WIyWlLk6GJQsqaUBKTNV-1" vertex="1">
          <mxGeometry x="639" y="270" width="120" height="60" as="geometry" />
        </mxCell>
        <mxCell id="Deetn7VXw1Hc985w1RGA-30" value="销售历史管理系统" style="whiteSpace=wrap;html=1;fontSize=18;" parent="WIyWlLk6GJQsqaUBKTNV-1" vertex="1">
          <mxGeometry x="639" y="370" width="120" height="60" as="geometry" />
        </mxCell>
        <mxCell id="Deetn7VXw1Hc985w1RGA-33" value="采购历史管理系统" style="whiteSpace=wrap;html=1;fontSize=18;" parent="WIyWlLk6GJQsqaUBKTNV-1" vertex="1">
          <mxGeometry x="639" y="470" width="120" height="60" as="geometry" />
        </mxCell>
        <mxCell id="Deetn7VXw1Hc985w1RGA-34" value="书籍管理系统" style="whiteSpace=wrap;html=1;fontSize=18;" parent="WIyWlLk6GJQsqaUBKTNV-1" vertex="1">
          <mxGeometry x="639" y="180" width="120" height="60" as="geometry" />
        </mxCell>
        <mxCell id="Deetn7VXw1Hc985w1RGA-63" value="" style="endArrow=classic;startArrow=classic;html=1;rounded=0;exitX=1;exitY=0;exitDx=0;exitDy=0;entryX=0;entryY=0.25;entryDx=0;entryDy=0;edgeStyle=orthogonalEdgeStyle;fontSize=12;" parent="WIyWlLk6GJQsqaUBKTNV-1" source="Deetn7VXw1Hc985w1RGA-1" target="Deetn7VXw1Hc985w1RGA-34" edge="1">
          <mxGeometry width="50" height="50" relative="1" as="geometry">
            <mxPoint x="439" y="460" as="sourcePoint" />
            <mxPoint x="489" y="410" as="targetPoint" />
            <Array as="points">
              <mxPoint x="307" y="266" />
              <mxPoint x="529" y="266" />
              <mxPoint x="529" y="195" />
            </Array>
          </mxGeometry>
        </mxCell>
        <mxCell id="Deetn7VXw1Hc985w1RGA-64" value="查询图书" style="edgeLabel;html=1;align=center;verticalAlign=middle;resizable=0;points=[];fontSize=12;" parent="Deetn7VXw1Hc985w1RGA-63" vertex="1" connectable="0">
          <mxGeometry x="-0.3928" y="1" relative="1" as="geometry">
            <mxPoint x="22" as="offset" />
          </mxGeometry>
        </mxCell>
        <mxCell id="Deetn7VXw1Hc985w1RGA-65" value="" style="endArrow=classic;startArrow=classic;html=1;rounded=0;exitX=1;exitY=0;exitDx=0;exitDy=0;entryX=0;entryY=0.75;entryDx=0;entryDy=0;edgeStyle=orthogonalEdgeStyle;fontSize=12;" parent="WIyWlLk6GJQsqaUBKTNV-1" source="Deetn7VXw1Hc985w1RGA-3" target="Deetn7VXw1Hc985w1RGA-29" edge="1">
          <mxGeometry width="50" height="50" relative="1" as="geometry">
            <mxPoint x="439" y="460" as="sourcePoint" />
            <mxPoint x="489" y="410" as="targetPoint" />
            <Array as="points">
              <mxPoint x="590" y="575" />
              <mxPoint x="590" y="315" />
            </Array>
          </mxGeometry>
        </mxCell>
        <mxCell id="Deetn7VXw1Hc985w1RGA-69" value="查询盈利信息" style="edgeLabel;html=1;align=center;verticalAlign=middle;resizable=0;points=[];fontSize=12;" parent="Deetn7VXw1Hc985w1RGA-65" vertex="1" connectable="0">
          <mxGeometry x="-0.5599" y="-1" relative="1" as="geometry">
            <mxPoint x="8" as="offset" />
          </mxGeometry>
        </mxCell>
        <mxCell id="Deetn7VXw1Hc985w1RGA-66" value="" style="endArrow=classic;startArrow=classic;html=1;rounded=0;exitX=1;exitY=0.5;exitDx=0;exitDy=0;entryX=0;entryY=0.75;entryDx=0;entryDy=0;edgeStyle=orthogonalEdgeStyle;fontSize=12;" parent="WIyWlLk6GJQsqaUBKTNV-1" source="Deetn7VXw1Hc985w1RGA-3" target="Deetn7VXw1Hc985w1RGA-30" edge="1">
          <mxGeometry width="50" height="50" relative="1" as="geometry">
            <mxPoint x="439" y="460" as="sourcePoint" />
            <mxPoint x="489" y="410" as="targetPoint" />
            <Array as="points">
              <mxPoint x="600" y="596" />
              <mxPoint x="600" y="415" />
            </Array>
          </mxGeometry>
        </mxCell>
        <mxCell id="Deetn7VXw1Hc985w1RGA-70" value="查询销售信息" style="edgeLabel;html=1;align=center;verticalAlign=middle;resizable=0;points=[];fontSize=12;" parent="Deetn7VXw1Hc985w1RGA-66" vertex="1" connectable="0">
          <mxGeometry x="-0.4833" relative="1" as="geometry">
            <mxPoint x="-3" as="offset" />
          </mxGeometry>
        </mxCell>
        <mxCell id="Deetn7VXw1Hc985w1RGA-67" value="" style="endArrow=none;html=1;rounded=0;exitX=1;exitY=1;exitDx=0;exitDy=0;entryX=0;entryY=0.75;entryDx=0;entryDy=0;edgeStyle=orthogonalEdgeStyle;fontSize=12;" parent="WIyWlLk6GJQsqaUBKTNV-1" source="Deetn7VXw1Hc985w1RGA-3" target="Deetn7VXw1Hc985w1RGA-33" edge="1">
          <mxGeometry width="50" height="50" relative="1" as="geometry">
            <mxPoint x="439" y="460" as="sourcePoint" />
            <mxPoint x="489" y="410" as="targetPoint" />
            <Array as="points">
              <mxPoint x="610" y="617" />
              <mxPoint x="610" y="515" />
            </Array>
          </mxGeometry>
        </mxCell>
        <mxCell id="Deetn7VXw1Hc985w1RGA-71" value="查询采购历史" style="edgeLabel;html=1;align=center;verticalAlign=middle;resizable=0;points=[];fontSize=12;" parent="Deetn7VXw1Hc985w1RGA-67" vertex="1" connectable="0">
          <mxGeometry x="-0.3735" relative="1" as="geometry">
            <mxPoint x="4" as="offset" />
          </mxGeometry>
        </mxCell>
        <mxCell id="Deetn7VXw1Hc985w1RGA-68" value="" style="endArrow=classic;startArrow=classic;html=1;rounded=0;exitX=0.5;exitY=1;exitDx=0;exitDy=0;entryX=0;entryY=0.5;entryDx=0;entryDy=0;edgeStyle=orthogonalEdgeStyle;fontSize=12;" parent="WIyWlLk6GJQsqaUBKTNV-1" source="Deetn7VXw1Hc985w1RGA-3" target="Deetn7VXw1Hc985w1RGA-28" edge="1">
          <mxGeometry width="50" height="50" relative="1" as="geometry">
            <mxPoint x="439" y="460" as="sourcePoint" />
            <mxPoint x="489" y="410" as="targetPoint" />
            <Array as="points">
              <mxPoint x="279" y="646" />
              <mxPoint x="620" y="646" />
              <mxPoint x="620" y="590" />
            </Array>
          </mxGeometry>
        </mxCell>
        <mxCell id="Deetn7VXw1Hc985w1RGA-72" value="查询员工工作情况、查询系统日志" style="edgeLabel;html=1;align=center;verticalAlign=middle;resizable=0;points=[];fontSize=12;" parent="Deetn7VXw1Hc985w1RGA-68" vertex="1" connectable="0">
          <mxGeometry x="-0.1656" y="-3" relative="1" as="geometry">
            <mxPoint x="9" y="-3" as="offset" />
          </mxGeometry>
        </mxCell>
        <mxCell id="Deetn7VXw1Hc985w1RGA-73" value="图书文件" style="shape=partialRectangle;whiteSpace=wrap;html=1;left=0;right=0;fillColor=none;fontSize=18;" parent="WIyWlLk6GJQsqaUBKTNV-1" vertex="1">
          <mxGeometry x="830" y="180" width="120" height="60" as="geometry" />
        </mxCell>
        <mxCell id="Deetn7VXw1Hc985w1RGA-74" value="盈利信息文件" style="shape=partialRectangle;whiteSpace=wrap;html=1;left=0;right=0;fillColor=none;fontSize=18;" parent="WIyWlLk6GJQsqaUBKTNV-1" vertex="1">
          <mxGeometry x="830" y="270" width="120" height="60" as="geometry" />
        </mxCell>
        <mxCell id="Deetn7VXw1Hc985w1RGA-75" value="销售历史文件" style="shape=partialRectangle;whiteSpace=wrap;html=1;left=0;right=0;fillColor=none;fontSize=18;" parent="WIyWlLk6GJQsqaUBKTNV-1" vertex="1">
          <mxGeometry x="830" y="370" width="120" height="60" as="geometry" />
        </mxCell>
        <mxCell id="Deetn7VXw1Hc985w1RGA-76" value="采购历史文件" style="shape=partialRectangle;whiteSpace=wrap;html=1;left=0;right=0;fillColor=none;fontSize=18;" parent="WIyWlLk6GJQsqaUBKTNV-1" vertex="1">
          <mxGeometry x="830" y="470" width="120" height="60" as="geometry" />
        </mxCell>
        <mxCell id="Deetn7VXw1Hc985w1RGA-78" value="日志文件" style="shape=partialRectangle;whiteSpace=wrap;html=1;left=0;right=0;fillColor=none;fontSize=18;" parent="WIyWlLk6GJQsqaUBKTNV-1" vertex="1">
          <mxGeometry x="830" y="560" width="120" height="60" as="geometry" />
        </mxCell>
        <mxCell id="Deetn7VXw1Hc985w1RGA-80" value="" style="endArrow=classic;startArrow=classic;html=1;rounded=0;exitX=1;exitY=0.5;exitDx=0;exitDy=0;entryX=0;entryY=0.5;entryDx=0;entryDy=0;fontSize=12;" parent="WIyWlLk6GJQsqaUBKTNV-1" source="Deetn7VXw1Hc985w1RGA-34" target="Deetn7VXw1Hc985w1RGA-73" edge="1">
          <mxGeometry width="50" height="50" relative="1" as="geometry">
            <mxPoint x="490" y="410" as="sourcePoint" />
            <mxPoint x="540" y="360" as="targetPoint" />
          </mxGeometry>
        </mxCell>
        <mxCell id="Deetn7VXw1Hc985w1RGA-85" value="指令" style="edgeLabel;html=1;align=center;verticalAlign=middle;resizable=0;points=[];fontSize=12;" parent="Deetn7VXw1Hc985w1RGA-80" vertex="1" connectable="0">
          <mxGeometry x="-0.0964" y="4" relative="1" as="geometry">
            <mxPoint x="4" y="3" as="offset" />
          </mxGeometry>
        </mxCell>
        <mxCell id="Deetn7VXw1Hc985w1RGA-81" value="" style="endArrow=classic;startArrow=classic;html=1;rounded=0;exitX=1;exitY=0.5;exitDx=0;exitDy=0;entryX=0;entryY=0.5;entryDx=0;entryDy=0;fontSize=12;" parent="WIyWlLk6GJQsqaUBKTNV-1" source="Deetn7VXw1Hc985w1RGA-29" target="Deetn7VXw1Hc985w1RGA-74" edge="1">
          <mxGeometry width="50" height="50" relative="1" as="geometry">
            <mxPoint x="490" y="410" as="sourcePoint" />
            <mxPoint x="540" y="360" as="targetPoint" />
          </mxGeometry>
        </mxCell>
        <mxCell id="Deetn7VXw1Hc985w1RGA-86" value="指令" style="edgeLabel;html=1;align=center;verticalAlign=middle;resizable=0;points=[];fontSize=12;" parent="Deetn7VXw1Hc985w1RGA-81" vertex="1" connectable="0">
          <mxGeometry x="-0.0964" y="3" relative="1" as="geometry">
            <mxPoint x="4" y="2" as="offset" />
          </mxGeometry>
        </mxCell>
        <mxCell id="Deetn7VXw1Hc985w1RGA-82" value="" style="endArrow=classic;startArrow=classic;html=1;rounded=0;exitX=1;exitY=0.5;exitDx=0;exitDy=0;entryX=0;entryY=0.5;entryDx=0;entryDy=0;fontSize=12;" parent="WIyWlLk6GJQsqaUBKTNV-1" source="Deetn7VXw1Hc985w1RGA-30" target="Deetn7VXw1Hc985w1RGA-75" edge="1">
          <mxGeometry width="50" height="50" relative="1" as="geometry">
            <mxPoint x="490" y="410" as="sourcePoint" />
            <mxPoint x="540" y="360" as="targetPoint" />
          </mxGeometry>
        </mxCell>
        <mxCell id="Deetn7VXw1Hc985w1RGA-88" value="指令" style="edgeLabel;html=1;align=center;verticalAlign=middle;resizable=0;points=[];fontSize=12;" parent="Deetn7VXw1Hc985w1RGA-82" vertex="1" connectable="0">
          <mxGeometry x="-0.0761" y="-1" relative="1" as="geometry">
            <mxPoint x="5" y="-1" as="offset" />
          </mxGeometry>
        </mxCell>
        <mxCell id="Deetn7VXw1Hc985w1RGA-83" value="" style="endArrow=classic;startArrow=classic;html=1;rounded=0;exitX=1;exitY=0.5;exitDx=0;exitDy=0;entryX=0;entryY=0.5;entryDx=0;entryDy=0;fontSize=12;" parent="WIyWlLk6GJQsqaUBKTNV-1" source="Deetn7VXw1Hc985w1RGA-33" target="Deetn7VXw1Hc985w1RGA-76" edge="1">
          <mxGeometry width="50" height="50" relative="1" as="geometry">
            <mxPoint x="490" y="410" as="sourcePoint" />
            <mxPoint x="540" y="360" as="targetPoint" />
          </mxGeometry>
        </mxCell>
        <mxCell id="Deetn7VXw1Hc985w1RGA-90" value="指令" style="edgeLabel;html=1;align=center;verticalAlign=middle;resizable=0;points=[];fontSize=12;" parent="Deetn7VXw1Hc985w1RGA-83" vertex="1" connectable="0">
          <mxGeometry x="-0.0278" y="1" relative="1" as="geometry">
            <mxPoint x="3" as="offset" />
          </mxGeometry>
        </mxCell>
        <mxCell id="Deetn7VXw1Hc985w1RGA-84" value="" style="endArrow=classic;startArrow=classic;html=1;rounded=0;exitX=1;exitY=0.5;exitDx=0;exitDy=0;entryX=0;entryY=0.5;entryDx=0;entryDy=0;fontSize=12;" parent="WIyWlLk6GJQsqaUBKTNV-1" source="Deetn7VXw1Hc985w1RGA-28" target="Deetn7VXw1Hc985w1RGA-78" edge="1">
          <mxGeometry width="50" height="50" relative="1" as="geometry">
            <mxPoint x="490" y="410" as="sourcePoint" />
            <mxPoint x="540" y="360" as="targetPoint" />
          </mxGeometry>
        </mxCell>
        <mxCell id="Deetn7VXw1Hc985w1RGA-91" value="指令" style="edgeLabel;html=1;align=center;verticalAlign=middle;resizable=0;points=[];fontSize=12;" parent="Deetn7VXw1Hc985w1RGA-84" vertex="1" connectable="0">
          <mxGeometry x="0.1976" y="1" relative="1" as="geometry">
            <mxPoint x="-5" as="offset" />
          </mxGeometry>
        </mxCell>
      </root>
    </mxGraphModel>
  </diagram>
  <diagram id="08xeBHWhCn-HcgSqioSV" name="顶层数据流图">
    <mxGraphModel dx="914" dy="645" grid="1" gridSize="10" guides="1" tooltips="1" connect="1" arrows="1" fold="1" page="1" pageScale="1" pageWidth="1169" pageHeight="827" math="0" shadow="0">
      <root>
        <mxCell id="0" />
        <mxCell id="1" parent="0" />
        <mxCell id="-fcko7tf9HlHMOs7NNd7-1" value="&lt;span style=&quot;font-size: 16px;&quot;&gt;用户&lt;/span&gt;" style="whiteSpace=wrap;html=1;" vertex="1" parent="1">
          <mxGeometry x="249" y="388" width="80" height="50" as="geometry" />
        </mxCell>
        <mxCell id="-fcko7tf9HlHMOs7NNd7-2" value="&lt;font style=&quot;font-size: 16px;&quot;&gt;书店管理系统&lt;/font&gt;" style="ellipse;whiteSpace=wrap;html=1;" vertex="1" parent="1">
          <mxGeometry x="799" y="373" width="120" height="80" as="geometry" />
        </mxCell>
        <mxCell id="-fcko7tf9HlHMOs7NNd7-3" value="" style="endArrow=classic;html=1;rounded=0;exitX=1;exitY=0.25;exitDx=0;exitDy=0;entryX=0;entryY=0;entryDx=0;entryDy=0;" edge="1" parent="1" source="-fcko7tf9HlHMOs7NNd7-1" target="-fcko7tf9HlHMOs7NNd7-2">
          <mxGeometry width="50" height="50" relative="1" as="geometry">
            <mxPoint x="829" y="389" as="sourcePoint" />
            <mxPoint x="817" y="385" as="targetPoint" />
          </mxGeometry>
        </mxCell>
        <mxCell id="-fcko7tf9HlHMOs7NNd7-4" value="&lt;font style=&quot;font-size: 12px;&quot;&gt;登录/注册、购买、进货、录入/修改图书信息、创建用户、查询指令&lt;/font&gt;" style="edgeLabel;html=1;align=center;verticalAlign=middle;resizable=0;points=[];" vertex="1" connectable="0" parent="-fcko7tf9HlHMOs7NNd7-3">
          <mxGeometry x="-0.0642" relative="1" as="geometry">
            <mxPoint x="6" y="1" as="offset" />
          </mxGeometry>
        </mxCell>
        <mxCell id="-fcko7tf9HlHMOs7NNd7-5" value="" style="endArrow=classic;html=1;rounded=0;exitX=0;exitY=1;exitDx=0;exitDy=0;entryX=1;entryY=0.75;entryDx=0;entryDy=0;" edge="1" parent="1" source="-fcko7tf9HlHMOs7NNd7-2" target="-fcko7tf9HlHMOs7NNd7-1">
          <mxGeometry width="50" height="50" relative="1" as="geometry">
            <mxPoint x="829" y="389" as="sourcePoint" />
            <mxPoint x="549" y="359" as="targetPoint" />
          </mxGeometry>
        </mxCell>
        <mxCell id="-fcko7tf9HlHMOs7NNd7-6" value="&lt;font style=&quot;font-size: 12px;&quot;&gt;查询结果&lt;/font&gt;" style="edgeLabel;html=1;align=center;verticalAlign=middle;resizable=0;points=[];" vertex="1" connectable="0" parent="-fcko7tf9HlHMOs7NNd7-5">
          <mxGeometry x="0.0955" y="-2" relative="1" as="geometry">
            <mxPoint x="10" y="2" as="offset" />
          </mxGeometry>
        </mxCell>
      </root>
    </mxGraphModel>
  </diagram>
  <diagram id="O0zhS9e_s0mnijYPtogK" name="0层数据流图">
    <mxGraphModel dx="1157" dy="817" grid="1" gridSize="10" guides="1" tooltips="1" connect="1" arrows="1" fold="1" page="1" pageScale="1" pageWidth="1169" pageHeight="827" math="0" shadow="0">
      <root>
        <mxCell id="0" />
        <mxCell id="1" parent="0" />
        <mxCell id="7k6j_BftnDn-_8vGD_Kn-2" style="edgeStyle=orthogonalEdgeStyle;rounded=0;orthogonalLoop=1;jettySize=auto;html=1;exitX=0.5;exitY=0;exitDx=0;exitDy=0;entryX=0.5;entryY=0;entryDx=0;entryDy=0;" edge="1" parent="1" source="bOhk45xHViX0fIezGEG9-1" target="bOhk45xHViX0fIezGEG9-24">
          <mxGeometry relative="1" as="geometry">
            <Array as="points">
              <mxPoint x="485" y="243.93" />
              <mxPoint x="1048" y="243.93" />
            </Array>
          </mxGeometry>
        </mxCell>
        <mxCell id="7k6j_BftnDn-_8vGD_Kn-3" value="&lt;font style=&quot;font-size: 12px;&quot;&gt;图书信息更改&lt;/font&gt;" style="edgeLabel;html=1;align=center;verticalAlign=middle;resizable=0;points=[];" vertex="1" connectable="0" parent="7k6j_BftnDn-_8vGD_Kn-2">
          <mxGeometry x="0.1157" y="1" relative="1" as="geometry">
            <mxPoint as="offset" />
          </mxGeometry>
        </mxCell>
        <mxCell id="bOhk45xHViX0fIezGEG9-1" value="&lt;font style=&quot;font-size: 16px;&quot;&gt;处理输入&lt;/font&gt;" style="ellipse;whiteSpace=wrap;html=1;" vertex="1" parent="1">
          <mxGeometry x="425" y="391.93" width="120" height="80" as="geometry" />
        </mxCell>
        <mxCell id="bOhk45xHViX0fIezGEG9-2" style="rounded=0;orthogonalLoop=1;jettySize=auto;html=1;exitX=1;exitY=0.5;exitDx=0;exitDy=0;entryX=0;entryY=0;entryDx=0;entryDy=0;" edge="1" parent="1" source="bOhk45xHViX0fIezGEG9-4" target="bOhk45xHViX0fIezGEG9-24">
          <mxGeometry relative="1" as="geometry" />
        </mxCell>
        <mxCell id="bOhk45xHViX0fIezGEG9-3" value="&lt;font style=&quot;font-size: 12px;&quot;&gt;图书、盈利、销售历史信息更改&lt;/font&gt;" style="edgeLabel;html=1;align=center;verticalAlign=middle;resizable=0;points=[];" vertex="1" connectable="0" parent="bOhk45xHViX0fIezGEG9-2">
          <mxGeometry x="-0.5458" relative="1" as="geometry">
            <mxPoint x="46" y="5" as="offset" />
          </mxGeometry>
        </mxCell>
        <mxCell id="bOhk45xHViX0fIezGEG9-4" value="&lt;font style=&quot;font-size: 16px;&quot;&gt;处理购买指令&lt;/font&gt;" style="ellipse;whiteSpace=wrap;html=1;" vertex="1" parent="1">
          <mxGeometry x="675" y="266.93" width="120" height="80" as="geometry" />
        </mxCell>
        <mxCell id="bOhk45xHViX0fIezGEG9-5" value="" style="rounded=0;orthogonalLoop=1;jettySize=auto;html=1;entryX=0.5;entryY=1;entryDx=0;entryDy=0;edgeStyle=orthogonalEdgeStyle;" edge="1" parent="1" source="bOhk45xHViX0fIezGEG9-7" target="bOhk45xHViX0fIezGEG9-25">
          <mxGeometry relative="1" as="geometry">
            <mxPoint x="735" y="648.93" as="targetPoint" />
            <Array as="points">
              <mxPoint x="735" y="623.93" />
              <mxPoint x="102" y="623.93" />
            </Array>
          </mxGeometry>
        </mxCell>
        <mxCell id="bOhk45xHViX0fIezGEG9-6" value="&lt;font style=&quot;font-size: 12px;&quot;&gt;查询结果&lt;/font&gt;" style="edgeLabel;html=1;align=center;verticalAlign=middle;resizable=0;points=[];" vertex="1" connectable="0" parent="bOhk45xHViX0fIezGEG9-5">
          <mxGeometry x="-0.2274" relative="1" as="geometry">
            <mxPoint x="-35" as="offset" />
          </mxGeometry>
        </mxCell>
        <mxCell id="bOhk45xHViX0fIezGEG9-7" value="&lt;font style=&quot;font-size: 16px;&quot;&gt;处理查询指令&lt;/font&gt;" style="ellipse;whiteSpace=wrap;html=1;" vertex="1" parent="1">
          <mxGeometry x="675" y="516.93" width="120" height="80" as="geometry" />
        </mxCell>
        <mxCell id="bOhk45xHViX0fIezGEG9-8" style="rounded=0;orthogonalLoop=1;jettySize=auto;html=1;exitX=1;exitY=0.5;exitDx=0;exitDy=0;entryX=0;entryY=1;entryDx=0;entryDy=0;" edge="1" parent="1" source="bOhk45xHViX0fIezGEG9-10" target="bOhk45xHViX0fIezGEG9-24">
          <mxGeometry relative="1" as="geometry" />
        </mxCell>
        <mxCell id="bOhk45xHViX0fIezGEG9-9" value="&lt;font style=&quot;font-size: 12px;&quot;&gt;图书、盈利、采购历史信息更改&lt;/font&gt;" style="edgeLabel;html=1;align=center;verticalAlign=middle;resizable=0;points=[];" vertex="1" connectable="0" parent="bOhk45xHViX0fIezGEG9-8">
          <mxGeometry x="-0.1623" y="1" relative="1" as="geometry">
            <mxPoint x="12" y="-1" as="offset" />
          </mxGeometry>
        </mxCell>
        <mxCell id="bOhk45xHViX0fIezGEG9-10" value="&lt;font style=&quot;font-size: 16px;&quot;&gt;处理进货指令&lt;/font&gt;" style="ellipse;whiteSpace=wrap;html=1;" vertex="1" parent="1">
          <mxGeometry x="675" y="391.93" width="120" height="80" as="geometry" />
        </mxCell>
        <mxCell id="bOhk45xHViX0fIezGEG9-11" value="" style="endArrow=classic;html=1;rounded=0;exitX=1;exitY=0.5;exitDx=0;exitDy=0;entryX=0;entryY=0.5;entryDx=0;entryDy=0;" edge="1" parent="1" source="bOhk45xHViX0fIezGEG9-1" target="bOhk45xHViX0fIezGEG9-10">
          <mxGeometry width="50" height="50" relative="1" as="geometry">
            <mxPoint x="585" y="428.93" as="sourcePoint" />
            <mxPoint x="635" y="378.93" as="targetPoint" />
          </mxGeometry>
        </mxCell>
        <mxCell id="bOhk45xHViX0fIezGEG9-12" value="&lt;font style=&quot;font-size: 12px;&quot;&gt;进货指令&lt;/font&gt;" style="edgeLabel;html=1;align=center;verticalAlign=middle;resizable=0;points=[];" vertex="1" connectable="0" parent="bOhk45xHViX0fIezGEG9-11">
          <mxGeometry x="-0.1552" y="2" relative="1" as="geometry">
            <mxPoint x="-5" y="1" as="offset" />
          </mxGeometry>
        </mxCell>
        <mxCell id="bOhk45xHViX0fIezGEG9-13" value="" style="endArrow=classic;html=1;rounded=0;exitX=1;exitY=1;exitDx=0;exitDy=0;entryX=0;entryY=0.5;entryDx=0;entryDy=0;" edge="1" parent="1" source="bOhk45xHViX0fIezGEG9-1" target="bOhk45xHViX0fIezGEG9-7">
          <mxGeometry width="50" height="50" relative="1" as="geometry">
            <mxPoint x="585" y="428.93" as="sourcePoint" />
            <mxPoint x="635" y="378.93" as="targetPoint" />
          </mxGeometry>
        </mxCell>
        <mxCell id="bOhk45xHViX0fIezGEG9-14" value="&lt;font style=&quot;font-size: 12px;&quot;&gt;查询指令&lt;/font&gt;" style="edgeLabel;html=1;align=center;verticalAlign=middle;resizable=0;points=[];" vertex="1" connectable="0" parent="bOhk45xHViX0fIezGEG9-13">
          <mxGeometry x="-0.1291" relative="1" as="geometry">
            <mxPoint x="6" y="3" as="offset" />
          </mxGeometry>
        </mxCell>
        <mxCell id="bOhk45xHViX0fIezGEG9-15" value="" style="endArrow=classic;html=1;rounded=0;exitX=1;exitY=0;exitDx=0;exitDy=0;entryX=0;entryY=0.5;entryDx=0;entryDy=0;" edge="1" parent="1" source="bOhk45xHViX0fIezGEG9-1" target="bOhk45xHViX0fIezGEG9-4">
          <mxGeometry width="50" height="50" relative="1" as="geometry">
            <mxPoint x="585" y="428.93" as="sourcePoint" />
            <mxPoint x="635" y="378.93" as="targetPoint" />
          </mxGeometry>
        </mxCell>
        <mxCell id="bOhk45xHViX0fIezGEG9-16" value="&lt;font style=&quot;font-size: 12px;&quot;&gt;购买指令&lt;/font&gt;" style="edgeLabel;html=1;align=center;verticalAlign=middle;resizable=0;points=[];" vertex="1" connectable="0" parent="bOhk45xHViX0fIezGEG9-15">
          <mxGeometry x="-0.0982" y="1" relative="1" as="geometry">
            <mxPoint x="4" y="-1" as="offset" />
          </mxGeometry>
        </mxCell>
        <mxCell id="33IGSKVpJ3AzzTwiilfE-1" style="edgeStyle=orthogonalEdgeStyle;rounded=0;orthogonalLoop=1;jettySize=auto;html=1;exitX=0.5;exitY=1;exitDx=0;exitDy=0;entryX=0.5;entryY=1;entryDx=0;entryDy=0;" edge="1" parent="1" source="bOhk45xHViX0fIezGEG9-17" target="bOhk45xHViX0fIezGEG9-1">
          <mxGeometry relative="1" as="geometry">
            <Array as="points">
              <mxPoint x="1048" y="660" />
              <mxPoint x="485" y="660" />
            </Array>
          </mxGeometry>
        </mxCell>
        <mxCell id="33IGSKVpJ3AzzTwiilfE-2" value="文件信息" style="edgeLabel;html=1;align=center;verticalAlign=middle;resizable=0;points=[];" vertex="1" connectable="0" parent="33IGSKVpJ3AzzTwiilfE-1">
          <mxGeometry x="-0.0526" relative="1" as="geometry">
            <mxPoint as="offset" />
          </mxGeometry>
        </mxCell>
        <mxCell id="bOhk45xHViX0fIezGEG9-17" value="&lt;font style=&quot;font-size: 15px;&quot;&gt;文件&lt;/font&gt;" style="shape=partialRectangle;whiteSpace=wrap;html=1;left=0;right=0;fillColor=none;" vertex="1" parent="1">
          <mxGeometry x="988" y="456.93" width="120" height="60" as="geometry" />
        </mxCell>
        <mxCell id="bOhk45xHViX0fIezGEG9-18" value="" style="endArrow=classic;html=1;rounded=0;exitX=0;exitY=0;exitDx=0;exitDy=0;entryX=1;entryY=0;entryDx=0;entryDy=0;edgeStyle=orthogonalEdgeStyle;" edge="1" parent="1" target="bOhk45xHViX0fIezGEG9-24" source="bOhk45xHViX0fIezGEG9-1">
          <mxGeometry width="50" height="50" relative="1" as="geometry">
            <mxPoint x="486" y="391.93" as="sourcePoint" />
            <mxPoint x="1049" y="316.93" as="targetPoint" />
            <Array as="points">
              <mxPoint x="443" y="203.93" />
              <mxPoint x="1090" y="203.93" />
            </Array>
          </mxGeometry>
        </mxCell>
        <mxCell id="bOhk45xHViX0fIezGEG9-19" value="&lt;font style=&quot;font-size: 12px;&quot;&gt;日志信息更改&lt;/font&gt;" style="edgeLabel;html=1;align=center;verticalAlign=middle;resizable=0;points=[];" vertex="1" connectable="0" parent="bOhk45xHViX0fIezGEG9-18">
          <mxGeometry x="-0.0022" relative="1" as="geometry">
            <mxPoint x="46" y="1" as="offset" />
          </mxGeometry>
        </mxCell>
        <mxCell id="bOhk45xHViX0fIezGEG9-20" value="" style="endArrow=classic;html=1;rounded=0;exitX=0.25;exitY=1;exitDx=0;exitDy=0;entryX=1;entryY=0.5;entryDx=0;entryDy=0;" edge="1" parent="1" source="bOhk45xHViX0fIezGEG9-17" target="bOhk45xHViX0fIezGEG9-7">
          <mxGeometry width="50" height="50" relative="1" as="geometry">
            <mxPoint x="785" y="488.93" as="sourcePoint" />
            <mxPoint x="835" y="438.93" as="targetPoint" />
          </mxGeometry>
        </mxCell>
        <mxCell id="bOhk45xHViX0fIezGEG9-21" value="&lt;font style=&quot;font-size: 12px;&quot;&gt;文件信息&lt;/font&gt;" style="edgeLabel;html=1;align=center;verticalAlign=middle;resizable=0;points=[];" vertex="1" connectable="0" parent="bOhk45xHViX0fIezGEG9-20">
          <mxGeometry x="0.0526" y="-1" relative="1" as="geometry">
            <mxPoint x="-1" y="1" as="offset" />
          </mxGeometry>
        </mxCell>
        <mxCell id="bOhk45xHViX0fIezGEG9-22" value="" style="edgeStyle=orthogonalEdgeStyle;rounded=0;orthogonalLoop=1;jettySize=auto;html=1;" edge="1" parent="1" source="bOhk45xHViX0fIezGEG9-24" target="bOhk45xHViX0fIezGEG9-17">
          <mxGeometry relative="1" as="geometry" />
        </mxCell>
        <mxCell id="bOhk45xHViX0fIezGEG9-23" value="&lt;font style=&quot;font-size: 12px;&quot;&gt;更改信息&lt;/font&gt;" style="edgeLabel;html=1;align=center;verticalAlign=middle;resizable=0;points=[];" vertex="1" connectable="0" parent="bOhk45xHViX0fIezGEG9-22">
          <mxGeometry x="-0.1292" relative="1" as="geometry">
            <mxPoint as="offset" />
          </mxGeometry>
        </mxCell>
        <mxCell id="bOhk45xHViX0fIezGEG9-24" value="&lt;font style=&quot;font-size: 16px;&quot;&gt;更改文件&lt;/font&gt;" style="ellipse;whiteSpace=wrap;html=1;" vertex="1" parent="1">
          <mxGeometry x="988" y="320.93" width="120" height="80" as="geometry" />
        </mxCell>
        <mxCell id="bOhk45xHViX0fIezGEG9-25" value="&lt;span style=&quot;font-size: 16px;&quot;&gt;用户&lt;/span&gt;" style="whiteSpace=wrap;html=1;" vertex="1" parent="1">
          <mxGeometry x="62" y="406.93" width="80" height="50" as="geometry" />
        </mxCell>
        <mxCell id="bOhk45xHViX0fIezGEG9-26" value="" style="endArrow=classic;html=1;rounded=0;exitX=1;exitY=0.5;exitDx=0;exitDy=0;entryX=0;entryY=0.5;entryDx=0;entryDy=0;" edge="1" parent="1" source="bOhk45xHViX0fIezGEG9-25" target="bOhk45xHViX0fIezGEG9-1">
          <mxGeometry width="50" height="50" relative="1" as="geometry">
            <mxPoint x="215" y="551.93" as="sourcePoint" />
            <mxPoint x="483" y="535.93" as="targetPoint" />
          </mxGeometry>
        </mxCell>
        <mxCell id="bOhk45xHViX0fIezGEG9-27" value="&lt;font style=&quot;font-size: 12px;&quot;&gt;登录/注册、购买、进货、录入/修改&lt;br&gt;图书信息、创建用户、查询指令&lt;/font&gt;" style="edgeLabel;html=1;align=center;verticalAlign=middle;resizable=0;points=[];" vertex="1" connectable="0" parent="bOhk45xHViX0fIezGEG9-26">
          <mxGeometry x="-0.0642" relative="1" as="geometry">
            <mxPoint x="5" y="-1" as="offset" />
          </mxGeometry>
        </mxCell>
      </root>
    </mxGraphModel>
  </diagram>
  <diagram id="4G1EgsUNw2KpdkB42XkG" name="处理输入细化数据流图">
    <mxGraphModel dx="1335" dy="943" grid="1" gridSize="10" guides="1" tooltips="1" connect="1" arrows="1" fold="1" page="1" pageScale="1" pageWidth="1169" pageHeight="827" math="0" shadow="0">
      <root>
        <mxCell id="0" />
        <mxCell id="1" parent="0" />
        <mxCell id="o_2V3MZ_FGqZbX8HwWe0-1" style="rounded=0;orthogonalLoop=1;jettySize=auto;html=1;exitX=1;exitY=1;exitDx=0;exitDy=0;entryX=0;entryY=0.5;entryDx=0;entryDy=0;" edge="1" parent="1" source="Y4Bo0aAWOm9Mxkg3AvoP-1" target="o_2V3MZ_FGqZbX8HwWe0-8">
          <mxGeometry relative="1" as="geometry" />
        </mxCell>
        <mxCell id="o_2V3MZ_FGqZbX8HwWe0-2" value="登录/注册、创建用户指令" style="edgeLabel;html=1;align=center;verticalAlign=middle;resizable=0;points=[];fontSize=12;" vertex="1" connectable="0" parent="o_2V3MZ_FGqZbX8HwWe0-1">
          <mxGeometry x="-0.1237" relative="1" as="geometry">
            <mxPoint x="5" y="5" as="offset" />
          </mxGeometry>
        </mxCell>
        <mxCell id="o_2V3MZ_FGqZbX8HwWe0-3" style="rounded=0;orthogonalLoop=1;jettySize=auto;html=1;exitX=1;exitY=0;exitDx=0;exitDy=0;entryX=0;entryY=0.5;entryDx=0;entryDy=0;" edge="1" parent="1" source="Y4Bo0aAWOm9Mxkg3AvoP-1" target="o_2V3MZ_FGqZbX8HwWe0-11">
          <mxGeometry relative="1" as="geometry" />
        </mxCell>
        <mxCell id="o_2V3MZ_FGqZbX8HwWe0-4" value="指令" style="edgeLabel;html=1;align=center;verticalAlign=middle;resizable=0;points=[];fontSize=12;" vertex="1" connectable="0" parent="o_2V3MZ_FGqZbX8HwWe0-3">
          <mxGeometry x="0.0711" y="-2" relative="1" as="geometry">
            <mxPoint x="-6" y="9" as="offset" />
          </mxGeometry>
        </mxCell>
        <mxCell id="Y4Bo0aAWOm9Mxkg3AvoP-2" value="" style="edgeStyle=orthogonalEdgeStyle;rounded=0;orthogonalLoop=1;jettySize=auto;html=1;" edge="1" parent="1" source="o_2V3MZ_FGqZbX8HwWe0-5" target="Y4Bo0aAWOm9Mxkg3AvoP-1">
          <mxGeometry relative="1" as="geometry" />
        </mxCell>
        <mxCell id="Y4Bo0aAWOm9Mxkg3AvoP-3" value="已分类的指令" style="edgeLabel;html=1;align=center;verticalAlign=middle;resizable=0;points=[];" vertex="1" connectable="0" parent="Y4Bo0aAWOm9Mxkg3AvoP-2">
          <mxGeometry x="-0.0347" relative="1" as="geometry">
            <mxPoint x="-3" as="offset" />
          </mxGeometry>
        </mxCell>
        <mxCell id="o_2V3MZ_FGqZbX8HwWe0-5" value="&lt;span style=&quot;font-size: 16px;&quot;&gt;分类指令并检查语法&lt;/span&gt;" style="ellipse;whiteSpace=wrap;html=1;" vertex="1" parent="1">
          <mxGeometry x="248" y="428" width="160" height="80" as="geometry" />
        </mxCell>
        <mxCell id="o_2V3MZ_FGqZbX8HwWe0-6" value="" style="edgeStyle=orthogonalEdgeStyle;rounded=0;orthogonalLoop=1;jettySize=auto;html=1;" edge="1" parent="1" source="o_2V3MZ_FGqZbX8HwWe0-8" target="o_2V3MZ_FGqZbX8HwWe0-15">
          <mxGeometry relative="1" as="geometry" />
        </mxCell>
        <mxCell id="o_2V3MZ_FGqZbX8HwWe0-7" value="更改" style="edgeLabel;html=1;align=center;verticalAlign=middle;resizable=0;points=[];fontSize=12;" vertex="1" connectable="0" parent="o_2V3MZ_FGqZbX8HwWe0-6">
          <mxGeometry x="-0.0356" relative="1" as="geometry">
            <mxPoint as="offset" />
          </mxGeometry>
        </mxCell>
        <mxCell id="o_2V3MZ_FGqZbX8HwWe0-8" value="&lt;span style=&quot;font-size: 16px;&quot;&gt;更新账户状态&lt;/span&gt;" style="ellipse;whiteSpace=wrap;html=1;" vertex="1" parent="1">
          <mxGeometry x="718.34" y="595" width="120" height="80" as="geometry" />
        </mxCell>
        <mxCell id="o_2V3MZ_FGqZbX8HwWe0-9" style="edgeStyle=orthogonalEdgeStyle;rounded=0;orthogonalLoop=1;jettySize=auto;html=1;exitX=1;exitY=0.5;exitDx=0;exitDy=0;" edge="1" parent="1" source="o_2V3MZ_FGqZbX8HwWe0-11" target="o_2V3MZ_FGqZbX8HwWe0-12">
          <mxGeometry relative="1" as="geometry" />
        </mxCell>
        <mxCell id="o_2V3MZ_FGqZbX8HwWe0-10" value="指令" style="edgeLabel;html=1;align=center;verticalAlign=middle;resizable=0;points=[];fontSize=12;" vertex="1" connectable="0" parent="o_2V3MZ_FGqZbX8HwWe0-9">
          <mxGeometry x="0.0289" relative="1" as="geometry">
            <mxPoint x="-3" as="offset" />
          </mxGeometry>
        </mxCell>
        <mxCell id="o_2V3MZ_FGqZbX8HwWe0-11" value="&lt;span style=&quot;font-size: 16px;&quot;&gt;检查用户权限&lt;/span&gt;" style="ellipse;whiteSpace=wrap;html=1;" vertex="1" parent="1">
          <mxGeometry x="718.34" y="265" width="120" height="80" as="geometry" />
        </mxCell>
        <mxCell id="oUO6MaXV8SG2C09V_IU--1" style="edgeStyle=orthogonalEdgeStyle;rounded=0;orthogonalLoop=1;jettySize=auto;html=1;exitX=0.5;exitY=0;exitDx=0;exitDy=0;" edge="1" parent="1" source="o_2V3MZ_FGqZbX8HwWe0-12">
          <mxGeometry relative="1" as="geometry">
            <mxPoint x="970.5" y="152" as="targetPoint" />
          </mxGeometry>
        </mxCell>
        <mxCell id="oUO6MaXV8SG2C09V_IU--2" value="图书信息更改" style="edgeLabel;html=1;align=center;verticalAlign=middle;resizable=0;points=[];fontSize=12;" vertex="1" connectable="0" parent="oUO6MaXV8SG2C09V_IU--1">
          <mxGeometry x="-0.0921" y="1" relative="1" as="geometry">
            <mxPoint y="-1" as="offset" />
          </mxGeometry>
        </mxCell>
        <mxCell id="o_2V3MZ_FGqZbX8HwWe0-12" value="&lt;span style=&quot;font-size: 16px;&quot;&gt;分派指令&lt;/span&gt;" style="ellipse;whiteSpace=wrap;html=1;" vertex="1" parent="1">
          <mxGeometry x="910" y="265" width="120" height="80" as="geometry" />
        </mxCell>
        <mxCell id="o_2V3MZ_FGqZbX8HwWe0-13" value="" style="edgeStyle=orthogonalEdgeStyle;rounded=0;orthogonalLoop=1;jettySize=auto;html=1;" edge="1" parent="1" source="o_2V3MZ_FGqZbX8HwWe0-15" target="o_2V3MZ_FGqZbX8HwWe0-11">
          <mxGeometry relative="1" as="geometry" />
        </mxCell>
        <mxCell id="o_2V3MZ_FGqZbX8HwWe0-14" value="当前账户" style="edgeLabel;html=1;align=center;verticalAlign=middle;resizable=0;points=[];fontSize=12;" vertex="1" connectable="0" parent="o_2V3MZ_FGqZbX8HwWe0-13">
          <mxGeometry x="-0.0405" relative="1" as="geometry">
            <mxPoint y="1" as="offset" />
          </mxGeometry>
        </mxCell>
        <mxCell id="o_2V3MZ_FGqZbX8HwWe0-15" value="&lt;font style=&quot;font-size: 16px;&quot;&gt;账户文件&lt;/font&gt;" style="shape=partialRectangle;whiteSpace=wrap;html=1;left=0;right=0;fillColor=none;" vertex="1" parent="1">
          <mxGeometry x="718.34" y="438" width="120" height="60" as="geometry" />
        </mxCell>
        <mxCell id="o_2V3MZ_FGqZbX8HwWe0-16" value="" style="endArrow=classic;html=1;rounded=0;exitX=0.5;exitY=0;exitDx=0;exitDy=0;" edge="1" parent="1" source="o_2V3MZ_FGqZbX8HwWe0-11">
          <mxGeometry width="50" height="50" relative="1" as="geometry">
            <mxPoint x="738.34" y="444" as="sourcePoint" />
            <mxPoint x="778.84" y="152" as="targetPoint" />
          </mxGeometry>
        </mxCell>
        <mxCell id="o_2V3MZ_FGqZbX8HwWe0-17" value="日志信息更改" style="edgeLabel;html=1;align=center;verticalAlign=middle;resizable=0;points=[];fontSize=12;" vertex="1" connectable="0" parent="o_2V3MZ_FGqZbX8HwWe0-16">
          <mxGeometry x="0.0167" relative="1" as="geometry">
            <mxPoint x="-1" y="5" as="offset" />
          </mxGeometry>
        </mxCell>
        <mxCell id="o_2V3MZ_FGqZbX8HwWe0-18" value="" style="endArrow=classic;html=1;rounded=0;exitX=1;exitY=0.5;exitDx=0;exitDy=0;" edge="1" parent="1" source="o_2V3MZ_FGqZbX8HwWe0-12">
          <mxGeometry width="50" height="50" relative="1" as="geometry">
            <mxPoint x="724.5" y="455" as="sourcePoint" />
            <mxPoint x="1116" y="305" as="targetPoint" />
          </mxGeometry>
        </mxCell>
        <mxCell id="o_2V3MZ_FGqZbX8HwWe0-19" value="进货指令" style="edgeLabel;html=1;align=center;verticalAlign=middle;resizable=0;points=[];fontSize=12;" vertex="1" connectable="0" parent="o_2V3MZ_FGqZbX8HwWe0-18">
          <mxGeometry x="-0.0767" y="1" relative="1" as="geometry">
            <mxPoint x="-6" as="offset" />
          </mxGeometry>
        </mxCell>
        <mxCell id="o_2V3MZ_FGqZbX8HwWe0-20" value="" style="endArrow=classic;html=1;rounded=0;exitX=1;exitY=0;exitDx=0;exitDy=0;" edge="1" parent="1" source="o_2V3MZ_FGqZbX8HwWe0-12">
          <mxGeometry width="50" height="50" relative="1" as="geometry">
            <mxPoint x="724.5" y="455" as="sourcePoint" />
            <mxPoint x="1116" y="225" as="targetPoint" />
          </mxGeometry>
        </mxCell>
        <mxCell id="o_2V3MZ_FGqZbX8HwWe0-21" value="购买指令" style="edgeLabel;html=1;align=center;verticalAlign=middle;resizable=0;points=[];fontSize=12;" vertex="1" connectable="0" parent="o_2V3MZ_FGqZbX8HwWe0-20">
          <mxGeometry x="-0.0179" y="2" relative="1" as="geometry">
            <mxPoint x="-1" y="2" as="offset" />
          </mxGeometry>
        </mxCell>
        <mxCell id="o_2V3MZ_FGqZbX8HwWe0-22" value="" style="endArrow=classic;html=1;rounded=0;exitX=1;exitY=1;exitDx=0;exitDy=0;" edge="1" parent="1" source="o_2V3MZ_FGqZbX8HwWe0-12">
          <mxGeometry width="50" height="50" relative="1" as="geometry">
            <mxPoint x="724.5" y="455" as="sourcePoint" />
            <mxPoint x="1116" y="385" as="targetPoint" />
          </mxGeometry>
        </mxCell>
        <mxCell id="o_2V3MZ_FGqZbX8HwWe0-23" value="查询指令" style="edgeLabel;html=1;align=center;verticalAlign=middle;resizable=0;points=[];fontSize=12;" vertex="1" connectable="0" parent="o_2V3MZ_FGqZbX8HwWe0-22">
          <mxGeometry x="-0.0369" relative="1" as="geometry">
            <mxPoint y="1" as="offset" />
          </mxGeometry>
        </mxCell>
        <mxCell id="o_2V3MZ_FGqZbX8HwWe0-24" value="" style="endArrow=classic;html=1;rounded=0;entryX=0;entryY=0.5;entryDx=0;entryDy=0;" edge="1" parent="1" target="o_2V3MZ_FGqZbX8HwWe0-5">
          <mxGeometry width="50" height="50" relative="1" as="geometry">
            <mxPoint x="10" y="468" as="sourcePoint" />
            <mxPoint x="258" y="465.29" as="targetPoint" />
          </mxGeometry>
        </mxCell>
        <mxCell id="o_2V3MZ_FGqZbX8HwWe0-25" value="&lt;font style=&quot;font-size: 12px;&quot;&gt;登录/注册、购买、进货、录入/修改&lt;br&gt;图书信息、创建用户、查询指令&lt;/font&gt;" style="edgeLabel;html=1;align=center;verticalAlign=middle;resizable=0;points=[];" vertex="1" connectable="0" parent="o_2V3MZ_FGqZbX8HwWe0-24">
          <mxGeometry x="-0.0642" relative="1" as="geometry">
            <mxPoint x="5" y="-1" as="offset" />
          </mxGeometry>
        </mxCell>
        <mxCell id="Y4Bo0aAWOm9Mxkg3AvoP-1" value="&lt;span style=&quot;font-size: 16px;&quot;&gt;检查参数合法性&lt;/span&gt;" style="ellipse;whiteSpace=wrap;html=1;" vertex="1" parent="1">
          <mxGeometry x="504" y="428" width="160" height="80" as="geometry" />
        </mxCell>
        <mxCell id="DB4-_db3p1Joo7-Cx3_f-2" value="" style="rounded=0;orthogonalLoop=1;jettySize=auto;html=1;" edge="1" parent="1" source="DB4-_db3p1Joo7-Cx3_f-1" target="Y4Bo0aAWOm9Mxkg3AvoP-1">
          <mxGeometry relative="1" as="geometry" />
        </mxCell>
        <mxCell id="DB4-_db3p1Joo7-Cx3_f-3" value="文件信息" style="edgeLabel;html=1;align=center;verticalAlign=middle;resizable=0;points=[];" vertex="1" connectable="0" parent="DB4-_db3p1Joo7-Cx3_f-2">
          <mxGeometry x="-0.0681" relative="1" as="geometry">
            <mxPoint y="2" as="offset" />
          </mxGeometry>
        </mxCell>
        <mxCell id="DB4-_db3p1Joo7-Cx3_f-1" value="&lt;font style=&quot;font-size: 15px;&quot;&gt;文件&lt;/font&gt;" style="shape=partialRectangle;whiteSpace=wrap;html=1;left=0;right=0;fillColor=none;" vertex="1" parent="1">
          <mxGeometry x="524" y="275" width="120" height="60" as="geometry" />
        </mxCell>
      </root>
    </mxGraphModel>
  </diagram>
  <diagram id="rFg4hdV8rHwYmpdn2GOZ" name="处理查询指令细化数据流图">
    <mxGraphModel dx="1240" dy="876" grid="1" gridSize="10" guides="1" tooltips="1" connect="1" arrows="1" fold="1" page="1" pageScale="1" pageWidth="1169" pageHeight="827" math="0" shadow="0">
      <root>
        <mxCell id="0" />
        <mxCell id="1" parent="0" />
        <mxCell id="a-5317DKdQxe8QTI4R_7-1" style="rounded=0;orthogonalLoop=1;jettySize=auto;html=1;entryX=0;entryY=0.5;entryDx=0;entryDy=0;" edge="1" parent="1" target="a-5317DKdQxe8QTI4R_7-15">
          <mxGeometry relative="1" as="geometry">
            <mxPoint x="47" y="416" as="sourcePoint" />
          </mxGeometry>
        </mxCell>
        <mxCell id="a-5317DKdQxe8QTI4R_7-2" value="查询指令" style="edgeLabel;html=1;align=center;verticalAlign=middle;resizable=0;points=[];fontSize=12;" vertex="1" connectable="0" parent="a-5317DKdQxe8QTI4R_7-1">
          <mxGeometry x="-0.5458" relative="1" as="geometry">
            <mxPoint x="37" as="offset" />
          </mxGeometry>
        </mxCell>
        <mxCell id="a-5317DKdQxe8QTI4R_7-3" style="rounded=0;orthogonalLoop=1;jettySize=auto;html=1;exitX=0.5;exitY=0;exitDx=0;exitDy=0;entryX=0;entryY=0.5;entryDx=0;entryDy=0;" edge="1" parent="1" source="a-5317DKdQxe8QTI4R_7-15" target="a-5317DKdQxe8QTI4R_7-30">
          <mxGeometry relative="1" as="geometry" />
        </mxCell>
        <mxCell id="a-5317DKdQxe8QTI4R_7-4" value="图书查询指令" style="edgeLabel;html=1;align=center;verticalAlign=middle;resizable=0;points=[];fontSize=12;" vertex="1" connectable="0" parent="a-5317DKdQxe8QTI4R_7-3">
          <mxGeometry x="-0.0418" y="2" relative="1" as="geometry">
            <mxPoint x="5" y="4" as="offset" />
          </mxGeometry>
        </mxCell>
        <mxCell id="a-5317DKdQxe8QTI4R_7-5" style="rounded=0;orthogonalLoop=1;jettySize=auto;html=1;exitX=1;exitY=0;exitDx=0;exitDy=0;entryX=0;entryY=0.5;entryDx=0;entryDy=0;" edge="1" parent="1" source="a-5317DKdQxe8QTI4R_7-15" target="a-5317DKdQxe8QTI4R_7-24">
          <mxGeometry relative="1" as="geometry" />
        </mxCell>
        <mxCell id="a-5317DKdQxe8QTI4R_7-6" value="盈利信息查询指令" style="edgeLabel;html=1;align=center;verticalAlign=middle;resizable=0;points=[];fontSize=12;" vertex="1" connectable="0" parent="a-5317DKdQxe8QTI4R_7-5">
          <mxGeometry x="-0.0265" y="-1" relative="1" as="geometry">
            <mxPoint x="-7" y="3" as="offset" />
          </mxGeometry>
        </mxCell>
        <mxCell id="a-5317DKdQxe8QTI4R_7-7" style="rounded=0;orthogonalLoop=1;jettySize=auto;html=1;exitX=1;exitY=0.5;exitDx=0;exitDy=0;entryX=0;entryY=0.5;entryDx=0;entryDy=0;" edge="1" parent="1" source="a-5317DKdQxe8QTI4R_7-15" target="a-5317DKdQxe8QTI4R_7-27">
          <mxGeometry relative="1" as="geometry" />
        </mxCell>
        <mxCell id="a-5317DKdQxe8QTI4R_7-8" value="销售历史查询指令" style="edgeLabel;html=1;align=center;verticalAlign=middle;resizable=0;points=[];fontSize=12;" vertex="1" connectable="0" parent="a-5317DKdQxe8QTI4R_7-7">
          <mxGeometry x="-0.0265" y="2" relative="1" as="geometry">
            <mxPoint y="1" as="offset" />
          </mxGeometry>
        </mxCell>
        <mxCell id="a-5317DKdQxe8QTI4R_7-9" style="rounded=0;orthogonalLoop=1;jettySize=auto;html=1;exitX=1;exitY=1;exitDx=0;exitDy=0;entryX=0;entryY=0.5;entryDx=0;entryDy=0;" edge="1" parent="1" source="a-5317DKdQxe8QTI4R_7-15" target="a-5317DKdQxe8QTI4R_7-21">
          <mxGeometry relative="1" as="geometry" />
        </mxCell>
        <mxCell id="a-5317DKdQxe8QTI4R_7-10" value="采购历史查询指令" style="edgeLabel;html=1;align=center;verticalAlign=middle;resizable=0;points=[];fontSize=12;" vertex="1" connectable="0" parent="a-5317DKdQxe8QTI4R_7-9">
          <mxGeometry x="-0.1029" relative="1" as="geometry">
            <mxPoint as="offset" />
          </mxGeometry>
        </mxCell>
        <mxCell id="a-5317DKdQxe8QTI4R_7-11" style="rounded=0;orthogonalLoop=1;jettySize=auto;html=1;exitX=0.5;exitY=1;exitDx=0;exitDy=0;entryX=0;entryY=0.5;entryDx=0;entryDy=0;" edge="1" parent="1" source="a-5317DKdQxe8QTI4R_7-15" target="a-5317DKdQxe8QTI4R_7-18">
          <mxGeometry relative="1" as="geometry" />
        </mxCell>
        <mxCell id="a-5317DKdQxe8QTI4R_7-12" value="日志文件查询指令" style="edgeLabel;html=1;align=center;verticalAlign=middle;resizable=0;points=[];fontSize=12;" vertex="1" connectable="0" parent="a-5317DKdQxe8QTI4R_7-11">
          <mxGeometry x="-0.0875" y="1" relative="1" as="geometry">
            <mxPoint x="9" y="8" as="offset" />
          </mxGeometry>
        </mxCell>
        <mxCell id="a-5317DKdQxe8QTI4R_7-13" style="rounded=0;orthogonalLoop=1;jettySize=auto;html=1;exitX=0;exitY=1;exitDx=0;exitDy=0;entryX=0;entryY=0.5;entryDx=0;entryDy=0;" edge="1" parent="1" source="a-5317DKdQxe8QTI4R_7-15" target="a-5317DKdQxe8QTI4R_7-50">
          <mxGeometry relative="1" as="geometry" />
        </mxCell>
        <mxCell id="a-5317DKdQxe8QTI4R_7-14" value="员工工作情况查询指令" style="edgeLabel;html=1;align=center;verticalAlign=middle;resizable=0;points=[];fontSize=12;" vertex="1" connectable="0" parent="a-5317DKdQxe8QTI4R_7-13">
          <mxGeometry x="-0.0259" relative="1" as="geometry">
            <mxPoint as="offset" />
          </mxGeometry>
        </mxCell>
        <mxCell id="a-5317DKdQxe8QTI4R_7-15" value="&lt;font style=&quot;font-size: 16px;&quot;&gt;识别查询指令&lt;/font&gt;" style="ellipse;whiteSpace=wrap;html=1;" vertex="1" parent="1">
          <mxGeometry x="179" y="376" width="160" height="80" as="geometry" />
        </mxCell>
        <mxCell id="a-5317DKdQxe8QTI4R_7-16" style="edgeStyle=orthogonalEdgeStyle;rounded=0;orthogonalLoop=1;jettySize=auto;html=1;exitX=1;exitY=0.5;exitDx=0;exitDy=0;entryX=0.25;entryY=1;entryDx=0;entryDy=0;" edge="1" parent="1" source="a-5317DKdQxe8QTI4R_7-18" target="a-5317DKdQxe8QTI4R_7-51">
          <mxGeometry relative="1" as="geometry" />
        </mxCell>
        <mxCell id="a-5317DKdQxe8QTI4R_7-17" value="查询结果" style="edgeLabel;html=1;align=center;verticalAlign=middle;resizable=0;points=[];fontSize=12;" vertex="1" connectable="0" parent="a-5317DKdQxe8QTI4R_7-16">
          <mxGeometry x="-0.6509" y="1" relative="1" as="geometry">
            <mxPoint x="-4" y="1" as="offset" />
          </mxGeometry>
        </mxCell>
        <mxCell id="a-5317DKdQxe8QTI4R_7-18" value="&lt;font style=&quot;font-size: 16px;&quot;&gt;查询日志&lt;/font&gt;" style="ellipse;whiteSpace=wrap;html=1;" vertex="1" parent="1">
          <mxGeometry x="457" y="569" width="160" height="80" as="geometry" />
        </mxCell>
        <mxCell id="a-5317DKdQxe8QTI4R_7-19" style="edgeStyle=orthogonalEdgeStyle;rounded=0;orthogonalLoop=1;jettySize=auto;html=1;exitX=0.5;exitY=1;exitDx=0;exitDy=0;entryX=0;entryY=0.75;entryDx=0;entryDy=0;" edge="1" parent="1" source="a-5317DKdQxe8QTI4R_7-21" target="a-5317DKdQxe8QTI4R_7-51">
          <mxGeometry relative="1" as="geometry">
            <Array as="points">
              <mxPoint x="537" y="539" />
              <mxPoint x="931" y="539" />
              <mxPoint x="931" y="428" />
            </Array>
          </mxGeometry>
        </mxCell>
        <mxCell id="a-5317DKdQxe8QTI4R_7-20" value="查询结果" style="edgeLabel;html=1;align=center;verticalAlign=middle;resizable=0;points=[];fontSize=12;" vertex="1" connectable="0" parent="a-5317DKdQxe8QTI4R_7-19">
          <mxGeometry x="-0.3578" y="2" relative="1" as="geometry">
            <mxPoint x="-2" y="2" as="offset" />
          </mxGeometry>
        </mxCell>
        <mxCell id="a-5317DKdQxe8QTI4R_7-21" value="&lt;font style=&quot;font-size: 16px;&quot;&gt;查询采购历史&lt;/font&gt;" style="ellipse;whiteSpace=wrap;html=1;" vertex="1" parent="1">
          <mxGeometry x="457" y="439" width="160" height="80" as="geometry" />
        </mxCell>
        <mxCell id="a-5317DKdQxe8QTI4R_7-22" style="edgeStyle=orthogonalEdgeStyle;rounded=0;orthogonalLoop=1;jettySize=auto;html=1;exitX=0.5;exitY=1;exitDx=0;exitDy=0;entryX=0.25;entryY=0;entryDx=0;entryDy=0;" edge="1" parent="1" source="a-5317DKdQxe8QTI4R_7-24" target="a-5317DKdQxe8QTI4R_7-51">
          <mxGeometry relative="1" as="geometry">
            <Array as="points">
              <mxPoint x="537" y="291" />
              <mxPoint x="1061" y="291" />
            </Array>
          </mxGeometry>
        </mxCell>
        <mxCell id="a-5317DKdQxe8QTI4R_7-23" value="查询结果" style="edgeLabel;html=1;align=center;verticalAlign=middle;resizable=0;points=[];fontSize=12;" vertex="1" connectable="0" parent="a-5317DKdQxe8QTI4R_7-22">
          <mxGeometry x="-0.3422" y="1" relative="1" as="geometry">
            <mxPoint x="-1" y="1" as="offset" />
          </mxGeometry>
        </mxCell>
        <mxCell id="a-5317DKdQxe8QTI4R_7-24" value="&lt;font style=&quot;font-size: 16px;&quot;&gt;查询盈利信息&lt;/font&gt;" style="ellipse;whiteSpace=wrap;html=1;" vertex="1" parent="1">
          <mxGeometry x="457" y="179" width="160" height="80" as="geometry" />
        </mxCell>
        <mxCell id="a-5317DKdQxe8QTI4R_7-25" style="edgeStyle=orthogonalEdgeStyle;rounded=0;orthogonalLoop=1;jettySize=auto;html=1;exitX=0.5;exitY=1;exitDx=0;exitDy=0;entryX=0;entryY=0.25;entryDx=0;entryDy=0;" edge="1" parent="1" source="a-5317DKdQxe8QTI4R_7-27" target="a-5317DKdQxe8QTI4R_7-51">
          <mxGeometry relative="1" as="geometry">
            <Array as="points">
              <mxPoint x="537" y="404" />
            </Array>
          </mxGeometry>
        </mxCell>
        <mxCell id="a-5317DKdQxe8QTI4R_7-26" value="查询结果" style="edgeLabel;html=1;align=center;verticalAlign=middle;resizable=0;points=[];fontSize=12;" vertex="1" connectable="0" parent="a-5317DKdQxe8QTI4R_7-25">
          <mxGeometry x="-0.2341" relative="1" as="geometry">
            <mxPoint as="offset" />
          </mxGeometry>
        </mxCell>
        <mxCell id="a-5317DKdQxe8QTI4R_7-27" value="&lt;font style=&quot;font-size: 16px;&quot;&gt;查询销售历史&lt;/font&gt;" style="ellipse;whiteSpace=wrap;html=1;" vertex="1" parent="1">
          <mxGeometry x="457" y="306" width="160" height="80" as="geometry" />
        </mxCell>
        <mxCell id="a-5317DKdQxe8QTI4R_7-28" style="edgeStyle=orthogonalEdgeStyle;rounded=0;orthogonalLoop=1;jettySize=auto;html=1;exitX=0.5;exitY=1;exitDx=0;exitDy=0;entryX=0.5;entryY=0;entryDx=0;entryDy=0;" edge="1" parent="1" source="a-5317DKdQxe8QTI4R_7-30" target="a-5317DKdQxe8QTI4R_7-51">
          <mxGeometry relative="1" as="geometry">
            <Array as="points">
              <mxPoint x="537" y="161" />
              <mxPoint x="1081" y="161" />
            </Array>
          </mxGeometry>
        </mxCell>
        <mxCell id="a-5317DKdQxe8QTI4R_7-29" value="查询结果" style="edgeLabel;html=1;align=center;verticalAlign=middle;resizable=0;points=[];fontSize=12;" vertex="1" connectable="0" parent="a-5317DKdQxe8QTI4R_7-28">
          <mxGeometry x="-0.4684" y="1" relative="1" as="geometry">
            <mxPoint y="1" as="offset" />
          </mxGeometry>
        </mxCell>
        <mxCell id="a-5317DKdQxe8QTI4R_7-30" value="&lt;font style=&quot;font-size: 16px;&quot;&gt;查询图书&lt;/font&gt;" style="ellipse;whiteSpace=wrap;html=1;" vertex="1" parent="1">
          <mxGeometry x="457" y="49" width="160" height="80" as="geometry" />
        </mxCell>
        <mxCell id="a-5317DKdQxe8QTI4R_7-31" value="" style="edgeStyle=orthogonalEdgeStyle;rounded=0;orthogonalLoop=1;jettySize=auto;html=1;" edge="1" parent="1" source="a-5317DKdQxe8QTI4R_7-33" target="a-5317DKdQxe8QTI4R_7-27">
          <mxGeometry relative="1" as="geometry" />
        </mxCell>
        <mxCell id="a-5317DKdQxe8QTI4R_7-32" value="信息" style="edgeLabel;html=1;align=center;verticalAlign=middle;resizable=0;points=[];fontSize=12;" vertex="1" connectable="0" parent="a-5317DKdQxe8QTI4R_7-31">
          <mxGeometry x="-0.183" y="1" relative="1" as="geometry">
            <mxPoint x="-3" as="offset" />
          </mxGeometry>
        </mxCell>
        <mxCell id="a-5317DKdQxe8QTI4R_7-33" value="&lt;font style=&quot;font-size: 16px;&quot;&gt;销售历史文件&lt;/font&gt;" style="shape=partialRectangle;whiteSpace=wrap;html=1;left=0;right=0;fillColor=none;" vertex="1" parent="1">
          <mxGeometry x="691" y="316" width="120" height="60" as="geometry" />
        </mxCell>
        <mxCell id="a-5317DKdQxe8QTI4R_7-34" value="" style="edgeStyle=orthogonalEdgeStyle;rounded=0;orthogonalLoop=1;jettySize=auto;html=1;" edge="1" parent="1" source="a-5317DKdQxe8QTI4R_7-36" target="a-5317DKdQxe8QTI4R_7-21">
          <mxGeometry relative="1" as="geometry" />
        </mxCell>
        <mxCell id="a-5317DKdQxe8QTI4R_7-35" value="信息" style="edgeLabel;html=1;align=center;verticalAlign=middle;resizable=0;points=[];fontSize=12;" vertex="1" connectable="0" parent="a-5317DKdQxe8QTI4R_7-34">
          <mxGeometry x="-0.183" relative="1" as="geometry">
            <mxPoint x="-3" as="offset" />
          </mxGeometry>
        </mxCell>
        <mxCell id="a-5317DKdQxe8QTI4R_7-36" value="&lt;font style=&quot;font-size: 16px;&quot;&gt;采购历史文件&lt;/font&gt;" style="shape=partialRectangle;whiteSpace=wrap;html=1;left=0;right=0;fillColor=none;" vertex="1" parent="1">
          <mxGeometry x="691" y="449" width="120" height="60" as="geometry" />
        </mxCell>
        <mxCell id="a-5317DKdQxe8QTI4R_7-37" style="rounded=0;orthogonalLoop=1;jettySize=auto;html=1;exitX=0;exitY=0.75;exitDx=0;exitDy=0;entryX=1;entryY=0;entryDx=0;entryDy=0;" edge="1" parent="1" source="a-5317DKdQxe8QTI4R_7-41" target="a-5317DKdQxe8QTI4R_7-50">
          <mxGeometry relative="1" as="geometry" />
        </mxCell>
        <mxCell id="a-5317DKdQxe8QTI4R_7-38" value="信息" style="edgeLabel;html=1;align=center;verticalAlign=middle;resizable=0;points=[];fontSize=12;" vertex="1" connectable="0" parent="a-5317DKdQxe8QTI4R_7-37">
          <mxGeometry x="-0.0959" relative="1" as="geometry">
            <mxPoint x="-1" y="1" as="offset" />
          </mxGeometry>
        </mxCell>
        <mxCell id="a-5317DKdQxe8QTI4R_7-39" style="rounded=0;orthogonalLoop=1;jettySize=auto;html=1;exitX=0;exitY=0.25;exitDx=0;exitDy=0;entryX=1;entryY=1;entryDx=0;entryDy=0;" edge="1" parent="1" source="a-5317DKdQxe8QTI4R_7-41" target="a-5317DKdQxe8QTI4R_7-18">
          <mxGeometry relative="1" as="geometry" />
        </mxCell>
        <mxCell id="a-5317DKdQxe8QTI4R_7-40" value="信息" style="edgeLabel;html=1;align=center;verticalAlign=middle;resizable=0;points=[];fontSize=12;" vertex="1" connectable="0" parent="a-5317DKdQxe8QTI4R_7-39">
          <mxGeometry x="-0.1216" y="-2" relative="1" as="geometry">
            <mxPoint x="-5" y="1" as="offset" />
          </mxGeometry>
        </mxCell>
        <mxCell id="a-5317DKdQxe8QTI4R_7-41" value="&lt;font style=&quot;font-size: 16px;&quot;&gt;日志文件&lt;/font&gt;" style="shape=partialRectangle;whiteSpace=wrap;html=1;left=0;right=0;fillColor=none;" vertex="1" parent="1">
          <mxGeometry x="691" y="639" width="120" height="60" as="geometry" />
        </mxCell>
        <mxCell id="a-5317DKdQxe8QTI4R_7-42" value="" style="edgeStyle=orthogonalEdgeStyle;rounded=0;orthogonalLoop=1;jettySize=auto;html=1;" edge="1" parent="1" source="a-5317DKdQxe8QTI4R_7-44" target="a-5317DKdQxe8QTI4R_7-24">
          <mxGeometry relative="1" as="geometry" />
        </mxCell>
        <mxCell id="a-5317DKdQxe8QTI4R_7-43" value="信息" style="edgeLabel;html=1;align=center;verticalAlign=middle;resizable=0;points=[];fontSize=12;" vertex="1" connectable="0" parent="a-5317DKdQxe8QTI4R_7-42">
          <mxGeometry x="-0.0998" y="-2" relative="1" as="geometry">
            <mxPoint y="2" as="offset" />
          </mxGeometry>
        </mxCell>
        <mxCell id="a-5317DKdQxe8QTI4R_7-44" value="&lt;font style=&quot;font-size: 16px;&quot;&gt;盈利信息文件&lt;/font&gt;" style="shape=partialRectangle;whiteSpace=wrap;html=1;left=0;right=0;fillColor=none;" vertex="1" parent="1">
          <mxGeometry x="691" y="189" width="120" height="60" as="geometry" />
        </mxCell>
        <mxCell id="a-5317DKdQxe8QTI4R_7-45" value="" style="edgeStyle=orthogonalEdgeStyle;rounded=0;orthogonalLoop=1;jettySize=auto;html=1;" edge="1" parent="1" source="a-5317DKdQxe8QTI4R_7-47" target="a-5317DKdQxe8QTI4R_7-30">
          <mxGeometry relative="1" as="geometry" />
        </mxCell>
        <mxCell id="a-5317DKdQxe8QTI4R_7-46" value="信息" style="edgeLabel;html=1;align=center;verticalAlign=middle;resizable=0;points=[];fontSize=12;" vertex="1" connectable="0" parent="a-5317DKdQxe8QTI4R_7-45">
          <mxGeometry x="-0.0421" y="1" relative="1" as="geometry">
            <mxPoint x="-3" y="-1" as="offset" />
          </mxGeometry>
        </mxCell>
        <mxCell id="a-5317DKdQxe8QTI4R_7-47" value="&lt;font style=&quot;font-size: 16px;&quot;&gt;图书文件&lt;/font&gt;" style="shape=partialRectangle;whiteSpace=wrap;html=1;left=0;right=0;fillColor=none;" vertex="1" parent="1">
          <mxGeometry x="701" y="59" width="120" height="60" as="geometry" />
        </mxCell>
        <mxCell id="a-5317DKdQxe8QTI4R_7-48" style="edgeStyle=orthogonalEdgeStyle;rounded=0;orthogonalLoop=1;jettySize=auto;html=1;exitX=1;exitY=0.5;exitDx=0;exitDy=0;entryX=0.5;entryY=1;entryDx=0;entryDy=0;" edge="1" parent="1" source="a-5317DKdQxe8QTI4R_7-50" target="a-5317DKdQxe8QTI4R_7-51">
          <mxGeometry relative="1" as="geometry" />
        </mxCell>
        <mxCell id="a-5317DKdQxe8QTI4R_7-49" value="查询结果" style="edgeLabel;html=1;align=center;verticalAlign=middle;resizable=0;points=[];fontSize=12;" vertex="1" connectable="0" parent="a-5317DKdQxe8QTI4R_7-48">
          <mxGeometry x="-0.7358" relative="1" as="geometry">
            <mxPoint x="1" as="offset" />
          </mxGeometry>
        </mxCell>
        <mxCell id="a-5317DKdQxe8QTI4R_7-50" value="&lt;font style=&quot;font-size: 16px;&quot;&gt;查询员工工作情况&lt;/font&gt;" style="ellipse;whiteSpace=wrap;html=1;" vertex="1" parent="1">
          <mxGeometry x="457" y="699" width="160" height="80" as="geometry" />
        </mxCell>
        <mxCell id="a-5317DKdQxe8QTI4R_7-51" value="&lt;span style=&quot;font-size: 16px;&quot;&gt;用户&lt;/span&gt;" style="whiteSpace=wrap;html=1;" vertex="1" parent="1">
          <mxGeometry x="1041" y="391" width="80" height="50" as="geometry" />
        </mxCell>
      </root>
    </mxGraphModel>
  </diagram>
  <diagram id="j3EOET2I5DuA3kt2udVx" name="更改文件细化数据流图">
    <mxGraphModel dx="1447" dy="1022" grid="1" gridSize="10" guides="1" tooltips="1" connect="1" arrows="1" fold="1" page="1" pageScale="1" pageWidth="1169" pageHeight="827" math="0" shadow="0">
      <root>
        <mxCell id="0" />
        <mxCell id="1" parent="0" />
        <mxCell id="YshUcvCoLOY40c9V1_PJ-1" style="rounded=0;orthogonalLoop=1;jettySize=auto;html=1;entryX=0.021;entryY=0.65;entryDx=0;entryDy=0;entryPerimeter=0;" edge="1" parent="1" target="YshUcvCoLOY40c9V1_PJ-17">
          <mxGeometry relative="1" as="geometry">
            <mxPoint x="92" y="439" as="sourcePoint" />
          </mxGeometry>
        </mxCell>
        <mxCell id="YshUcvCoLOY40c9V1_PJ-2" value="图书、盈利、销售历史信息更改" style="edgeLabel;html=1;align=center;verticalAlign=middle;resizable=0;points=[];fontSize=12;" vertex="1" connectable="0" parent="YshUcvCoLOY40c9V1_PJ-1">
          <mxGeometry x="-0.5458" relative="1" as="geometry">
            <mxPoint x="65" y="-5" as="offset" />
          </mxGeometry>
        </mxCell>
        <mxCell id="YshUcvCoLOY40c9V1_PJ-3" style="rounded=0;orthogonalLoop=1;jettySize=auto;html=1;entryX=0;entryY=1;entryDx=0;entryDy=0;" edge="1" parent="1" target="YshUcvCoLOY40c9V1_PJ-17">
          <mxGeometry relative="1" as="geometry">
            <mxPoint x="92" y="499" as="sourcePoint" />
          </mxGeometry>
        </mxCell>
        <mxCell id="YshUcvCoLOY40c9V1_PJ-4" value="图书、盈利、采购历史信息更改" style="edgeLabel;html=1;align=center;verticalAlign=middle;resizable=0;points=[];fontSize=12;" vertex="1" connectable="0" parent="YshUcvCoLOY40c9V1_PJ-3">
          <mxGeometry x="-0.1623" y="1" relative="1" as="geometry">
            <mxPoint x="12" y="-1" as="offset" />
          </mxGeometry>
        </mxCell>
        <mxCell id="YshUcvCoLOY40c9V1_PJ-5" value="" style="endArrow=classic;html=1;rounded=0;entryX=0;entryY=0;entryDx=0;entryDy=0;" edge="1" parent="1" target="YshUcvCoLOY40c9V1_PJ-17">
          <mxGeometry width="50" height="50" relative="1" as="geometry">
            <mxPoint x="92" y="319" as="sourcePoint" />
            <mxPoint x="1054" y="275" as="targetPoint" />
          </mxGeometry>
        </mxCell>
        <mxCell id="YshUcvCoLOY40c9V1_PJ-6" value="日志信息更改" style="edgeLabel;html=1;align=center;verticalAlign=middle;resizable=0;points=[];fontSize=12;" vertex="1" connectable="0" parent="YshUcvCoLOY40c9V1_PJ-5">
          <mxGeometry x="-0.0022" relative="1" as="geometry">
            <mxPoint x="-4" y="-1" as="offset" />
          </mxGeometry>
        </mxCell>
        <mxCell id="YshUcvCoLOY40c9V1_PJ-7" style="rounded=0;orthogonalLoop=1;jettySize=auto;html=1;exitX=0.5;exitY=0;exitDx=0;exitDy=0;entryX=0;entryY=0.5;entryDx=0;entryDy=0;" edge="1" parent="1" source="YshUcvCoLOY40c9V1_PJ-17" target="YshUcvCoLOY40c9V1_PJ-32">
          <mxGeometry relative="1" as="geometry" />
        </mxCell>
        <mxCell id="YshUcvCoLOY40c9V1_PJ-8" value="图书文件更改" style="edgeLabel;html=1;align=center;verticalAlign=middle;resizable=0;points=[];fontSize=12;" vertex="1" connectable="0" parent="YshUcvCoLOY40c9V1_PJ-7">
          <mxGeometry x="-0.0418" y="2" relative="1" as="geometry">
            <mxPoint x="5" y="4" as="offset" />
          </mxGeometry>
        </mxCell>
        <mxCell id="YshUcvCoLOY40c9V1_PJ-9" style="rounded=0;orthogonalLoop=1;jettySize=auto;html=1;exitX=1;exitY=0;exitDx=0;exitDy=0;entryX=0;entryY=0.5;entryDx=0;entryDy=0;" edge="1" parent="1" source="YshUcvCoLOY40c9V1_PJ-17" target="YshUcvCoLOY40c9V1_PJ-26">
          <mxGeometry relative="1" as="geometry" />
        </mxCell>
        <mxCell id="YshUcvCoLOY40c9V1_PJ-10" value="盈利信息更改" style="edgeLabel;html=1;align=center;verticalAlign=middle;resizable=0;points=[];fontSize=12;" vertex="1" connectable="0" parent="YshUcvCoLOY40c9V1_PJ-9">
          <mxGeometry x="-0.0265" y="-1" relative="1" as="geometry">
            <mxPoint x="-7" y="3" as="offset" />
          </mxGeometry>
        </mxCell>
        <mxCell id="YshUcvCoLOY40c9V1_PJ-11" style="rounded=0;orthogonalLoop=1;jettySize=auto;html=1;exitX=1;exitY=0.5;exitDx=0;exitDy=0;entryX=0;entryY=0.5;entryDx=0;entryDy=0;" edge="1" parent="1" source="YshUcvCoLOY40c9V1_PJ-17" target="YshUcvCoLOY40c9V1_PJ-29">
          <mxGeometry relative="1" as="geometry" />
        </mxCell>
        <mxCell id="YshUcvCoLOY40c9V1_PJ-12" value="销售历史文件更改" style="edgeLabel;html=1;align=center;verticalAlign=middle;resizable=0;points=[];fontSize=12;" vertex="1" connectable="0" parent="YshUcvCoLOY40c9V1_PJ-11">
          <mxGeometry x="-0.0265" y="2" relative="1" as="geometry">
            <mxPoint y="1" as="offset" />
          </mxGeometry>
        </mxCell>
        <mxCell id="YshUcvCoLOY40c9V1_PJ-13" style="rounded=0;orthogonalLoop=1;jettySize=auto;html=1;exitX=1;exitY=1;exitDx=0;exitDy=0;entryX=0;entryY=0.5;entryDx=0;entryDy=0;" edge="1" parent="1" source="YshUcvCoLOY40c9V1_PJ-17" target="YshUcvCoLOY40c9V1_PJ-23">
          <mxGeometry relative="1" as="geometry" />
        </mxCell>
        <mxCell id="YshUcvCoLOY40c9V1_PJ-14" value="采购历史文件更改" style="edgeLabel;html=1;align=center;verticalAlign=middle;resizable=0;points=[];fontSize=12;" vertex="1" connectable="0" parent="YshUcvCoLOY40c9V1_PJ-13">
          <mxGeometry x="-0.1029" relative="1" as="geometry">
            <mxPoint as="offset" />
          </mxGeometry>
        </mxCell>
        <mxCell id="YshUcvCoLOY40c9V1_PJ-15" style="rounded=0;orthogonalLoop=1;jettySize=auto;html=1;exitX=0.5;exitY=1;exitDx=0;exitDy=0;entryX=0;entryY=0.5;entryDx=0;entryDy=0;" edge="1" parent="1" source="YshUcvCoLOY40c9V1_PJ-17" target="YshUcvCoLOY40c9V1_PJ-20">
          <mxGeometry relative="1" as="geometry" />
        </mxCell>
        <mxCell id="YshUcvCoLOY40c9V1_PJ-16" value="日志文件更改" style="edgeLabel;html=1;align=center;verticalAlign=middle;resizable=0;points=[];fontSize=12;" vertex="1" connectable="0" parent="YshUcvCoLOY40c9V1_PJ-15">
          <mxGeometry x="-0.0875" y="1" relative="1" as="geometry">
            <mxPoint x="9" y="8" as="offset" />
          </mxGeometry>
        </mxCell>
        <mxCell id="YshUcvCoLOY40c9V1_PJ-17" value="&lt;font style=&quot;font-size: 16px;&quot;&gt;识别更改指令&lt;/font&gt;" style="ellipse;whiteSpace=wrap;html=1;" vertex="1" parent="1">
          <mxGeometry x="327" y="368" width="160" height="80" as="geometry" />
        </mxCell>
        <mxCell id="YshUcvCoLOY40c9V1_PJ-18" style="edgeStyle=orthogonalEdgeStyle;rounded=0;orthogonalLoop=1;jettySize=auto;html=1;exitX=1;exitY=0.5;exitDx=0;exitDy=0;entryX=0;entryY=0.5;entryDx=0;entryDy=0;" edge="1" parent="1" source="YshUcvCoLOY40c9V1_PJ-20" target="YshUcvCoLOY40c9V1_PJ-35">
          <mxGeometry relative="1" as="geometry" />
        </mxCell>
        <mxCell id="YshUcvCoLOY40c9V1_PJ-19" value="更改" style="edgeLabel;html=1;align=center;verticalAlign=middle;resizable=0;points=[];fontSize=12;" vertex="1" connectable="0" parent="YshUcvCoLOY40c9V1_PJ-18">
          <mxGeometry x="-0.005" relative="1" as="geometry">
            <mxPoint x="-1" as="offset" />
          </mxGeometry>
        </mxCell>
        <mxCell id="YshUcvCoLOY40c9V1_PJ-20" value="&lt;font style=&quot;font-size: 16px;&quot;&gt;更改日志文件&lt;/font&gt;" style="ellipse;whiteSpace=wrap;html=1;" vertex="1" parent="1">
          <mxGeometry x="672" y="624" width="160" height="80" as="geometry" />
        </mxCell>
        <mxCell id="YshUcvCoLOY40c9V1_PJ-21" style="edgeStyle=orthogonalEdgeStyle;rounded=0;orthogonalLoop=1;jettySize=auto;html=1;exitX=1;exitY=0.5;exitDx=0;exitDy=0;entryX=0;entryY=0.5;entryDx=0;entryDy=0;" edge="1" parent="1" source="YshUcvCoLOY40c9V1_PJ-23" target="YshUcvCoLOY40c9V1_PJ-34">
          <mxGeometry relative="1" as="geometry" />
        </mxCell>
        <mxCell id="YshUcvCoLOY40c9V1_PJ-22" value="更改" style="edgeLabel;html=1;align=center;verticalAlign=middle;resizable=0;points=[];fontSize=12;" vertex="1" connectable="0" parent="YshUcvCoLOY40c9V1_PJ-21">
          <mxGeometry x="-0.005" relative="1" as="geometry">
            <mxPoint x="-2" y="-1" as="offset" />
          </mxGeometry>
        </mxCell>
        <mxCell id="YshUcvCoLOY40c9V1_PJ-23" value="&lt;font style=&quot;font-size: 16px;&quot;&gt;更改采购历史文件&lt;/font&gt;" style="ellipse;whiteSpace=wrap;html=1;" vertex="1" parent="1">
          <mxGeometry x="672" y="494" width="160" height="80" as="geometry" />
        </mxCell>
        <mxCell id="YshUcvCoLOY40c9V1_PJ-24" style="edgeStyle=orthogonalEdgeStyle;rounded=0;orthogonalLoop=1;jettySize=auto;html=1;exitX=1;exitY=0.5;exitDx=0;exitDy=0;entryX=0;entryY=0.5;entryDx=0;entryDy=0;" edge="1" parent="1" source="YshUcvCoLOY40c9V1_PJ-26" target="YshUcvCoLOY40c9V1_PJ-36">
          <mxGeometry relative="1" as="geometry" />
        </mxCell>
        <mxCell id="YshUcvCoLOY40c9V1_PJ-25" value="更改" style="edgeLabel;html=1;align=center;verticalAlign=middle;resizable=0;points=[];fontSize=12;" vertex="1" connectable="0" parent="YshUcvCoLOY40c9V1_PJ-24">
          <mxGeometry x="0.0179" y="1" relative="1" as="geometry">
            <mxPoint x="-4" as="offset" />
          </mxGeometry>
        </mxCell>
        <mxCell id="YshUcvCoLOY40c9V1_PJ-26" value="&lt;font style=&quot;font-size: 16px;&quot;&gt;更改盈利信息文件&lt;/font&gt;" style="ellipse;whiteSpace=wrap;html=1;" vertex="1" parent="1">
          <mxGeometry x="672" y="244" width="160" height="80" as="geometry" />
        </mxCell>
        <mxCell id="YshUcvCoLOY40c9V1_PJ-27" style="edgeStyle=orthogonalEdgeStyle;rounded=0;orthogonalLoop=1;jettySize=auto;html=1;exitX=1;exitY=0.5;exitDx=0;exitDy=0;entryX=0;entryY=0.5;entryDx=0;entryDy=0;" edge="1" parent="1" source="YshUcvCoLOY40c9V1_PJ-29" target="YshUcvCoLOY40c9V1_PJ-33">
          <mxGeometry relative="1" as="geometry" />
        </mxCell>
        <mxCell id="YshUcvCoLOY40c9V1_PJ-28" value="更改" style="edgeLabel;html=1;align=center;verticalAlign=middle;resizable=0;points=[];fontSize=12;" vertex="1" connectable="0" parent="YshUcvCoLOY40c9V1_PJ-27">
          <mxGeometry x="-0.005" y="-1" relative="1" as="geometry">
            <mxPoint x="-3" y="-1" as="offset" />
          </mxGeometry>
        </mxCell>
        <mxCell id="YshUcvCoLOY40c9V1_PJ-29" value="&lt;font style=&quot;font-size: 16px;&quot;&gt;更改销售历史文件&lt;/font&gt;" style="ellipse;whiteSpace=wrap;html=1;" vertex="1" parent="1">
          <mxGeometry x="672" y="368" width="160" height="80" as="geometry" />
        </mxCell>
        <mxCell id="YshUcvCoLOY40c9V1_PJ-30" style="edgeStyle=orthogonalEdgeStyle;rounded=0;orthogonalLoop=1;jettySize=auto;html=1;exitX=1;exitY=0.5;exitDx=0;exitDy=0;entryX=0;entryY=0.5;entryDx=0;entryDy=0;" edge="1" parent="1" source="YshUcvCoLOY40c9V1_PJ-32" target="YshUcvCoLOY40c9V1_PJ-37">
          <mxGeometry relative="1" as="geometry" />
        </mxCell>
        <mxCell id="YshUcvCoLOY40c9V1_PJ-31" value="更改" style="edgeLabel;html=1;align=center;verticalAlign=middle;resizable=0;points=[];fontSize=12;" vertex="1" connectable="0" parent="YshUcvCoLOY40c9V1_PJ-30">
          <mxGeometry x="-0.005" y="-2" relative="1" as="geometry">
            <mxPoint x="-1" y="-2" as="offset" />
          </mxGeometry>
        </mxCell>
        <mxCell id="YshUcvCoLOY40c9V1_PJ-32" value="&lt;font style=&quot;font-size: 16px;&quot;&gt;更改图书文件&lt;/font&gt;" style="ellipse;whiteSpace=wrap;html=1;" vertex="1" parent="1">
          <mxGeometry x="672" y="124" width="160" height="80" as="geometry" />
        </mxCell>
        <mxCell id="YshUcvCoLOY40c9V1_PJ-33" value="&lt;font style=&quot;font-size: 16px;&quot;&gt;销售历史文件&lt;/font&gt;" style="shape=partialRectangle;whiteSpace=wrap;html=1;left=0;right=0;fillColor=none;" vertex="1" parent="1">
          <mxGeometry x="957" y="378" width="120" height="60" as="geometry" />
        </mxCell>
        <mxCell id="YshUcvCoLOY40c9V1_PJ-34" value="&lt;font style=&quot;font-size: 16px;&quot;&gt;采购历史文件&lt;/font&gt;" style="shape=partialRectangle;whiteSpace=wrap;html=1;left=0;right=0;fillColor=none;" vertex="1" parent="1">
          <mxGeometry x="957" y="504" width="120" height="60" as="geometry" />
        </mxCell>
        <mxCell id="YshUcvCoLOY40c9V1_PJ-35" value="&lt;font style=&quot;font-size: 16px;&quot;&gt;日志文件&lt;/font&gt;" style="shape=partialRectangle;whiteSpace=wrap;html=1;left=0;right=0;fillColor=none;" vertex="1" parent="1">
          <mxGeometry x="957" y="634" width="120" height="60" as="geometry" />
        </mxCell>
        <mxCell id="YshUcvCoLOY40c9V1_PJ-36" value="&lt;font style=&quot;font-size: 16px;&quot;&gt;盈利信息文件&lt;/font&gt;" style="shape=partialRectangle;whiteSpace=wrap;html=1;left=0;right=0;fillColor=none;" vertex="1" parent="1">
          <mxGeometry x="957" y="254" width="120" height="60" as="geometry" />
        </mxCell>
        <mxCell id="YshUcvCoLOY40c9V1_PJ-37" value="&lt;font style=&quot;font-size: 16px;&quot;&gt;图书文件&lt;/font&gt;" style="shape=partialRectangle;whiteSpace=wrap;html=1;left=0;right=0;fillColor=none;" vertex="1" parent="1">
          <mxGeometry x="957" y="134" width="120" height="60" as="geometry" />
        </mxCell>
        <mxCell id="Wphp504ibQSMUoRkeDjW-1" value="" style="endArrow=classic;html=1;rounded=0;entryX=0.019;entryY=0.363;entryDx=0;entryDy=0;entryPerimeter=0;" edge="1" parent="1" target="YshUcvCoLOY40c9V1_PJ-17">
          <mxGeometry width="50" height="50" relative="1" as="geometry">
            <mxPoint x="92" y="379" as="sourcePoint" />
            <mxPoint x="382" y="399" as="targetPoint" />
          </mxGeometry>
        </mxCell>
        <mxCell id="Wphp504ibQSMUoRkeDjW-2" value="图书信息更改" style="edgeLabel;html=1;align=center;verticalAlign=middle;resizable=0;points=[];fontSize=12;" vertex="1" connectable="0" parent="Wphp504ibQSMUoRkeDjW-1">
          <mxGeometry x="-0.0212" relative="1" as="geometry">
            <mxPoint as="offset" />
          </mxGeometry>
        </mxCell>
      </root>
    </mxGraphModel>
  </diagram>
</mxfile>
